<svg xmlns="http://www.w3.org/2000/svg" xmlns:xlink="http://www.w3.org/1999/xlink" xml:space="preserve" style="enable-background:new 0 0 750 500" viewBox="0 0 750 500">
  <path d="M0 0h750v500H0z" style="fill:#65d2ef"/>
  <circle cx="527.115" cy="91.066" r="45.25" style="fill:#fcee21" transform="rotate(-81.089 527.15 91.058)"/>
  <path d="M527.115 115.413c-19.541 0-36.534-9.594-45.234-23.721.337 24.701 20.453 44.623 45.234 44.623 24.781 0 44.897-19.923 45.234-44.623-8.7 14.127-25.693 23.721-45.234 23.721z" style="fill:#fcee21"/>
  <defs>
    <path id="a" d="M0 0h750v500H0z"/>
  </defs>
  <clipPath id="b">
    <use xlink:href="#a" style="overflow:visible"/>
  </clipPath>
  <g style="clip-path:url(#b)">
    <path d="M-33.029 454.97h275.295c-.86-30.305-9.152-62.396-21.283-93.69a454.782 454.782 0 0 0-7.743-18.755c-8.894-20.293-19.132-40.016-29.692-58.427-8.979-15.669-18.185-30.38-26.993-43.705-.097-.129-.183-.269-.269-.398a894.18 894.18 0 0 0-23.885-34.316c-14.841-20.304-40.715-20.304-55.567 0a906.767 906.767 0 0 0-23.885 34.316c-8.883 13.432-18.185 28.283-27.251 44.103-10.561 18.411-20.799 38.134-29.692 58.427-16.248 37.069-27.992 76.042-29.035 112.445z" style="fill:#8ce4f9"/>
    <path d="M70.835 454.97h144.213c1.893-30.144 3.968-62.697 5.936-93.69a454.782 454.782 0 0 0-7.743-18.755c-8.894-20.293-19.132-40.016-29.692-58.427-8.979-15.669-18.185-30.38-26.993-43.705-21.82 34.187-73.849 123.532-85.721 214.577zM52.951 239.994a905.28 905.28 0 0 1 23.883-34.316c14.847-20.304 40.723-20.304 55.563 0a895.956 895.956 0 0 1 23.891 34.316c-3.392 2.035-7.211 3.174-11.242 3.174-1.37 0-2.713-.138-4.025-.393-.398 4.683-2.306 8.827-5.542 11.104-4.023 2.83-9.041 2.043-13.075-1.479-4.745 6.987-10.968 11.23-17.784 11.23-6.819 0-13.043-4.242-17.789-11.227-4.034 3.519-9.049 4.305-13.071 1.476-3.237-2.277-5.145-6.422-5.542-11.105-1.314.256-2.66.394-4.033.394-4.031 0-7.842-1.139-11.234-3.174z" style="opacity:.5;fill:#8ce4f9"/>
    <path d="M108.776 454.97h391.26c-1.42-50.14-17.16-103.69-39.14-154.9-.7-1.64-1.4-3.28-2.12-4.91-12.63-28.84-27.18-56.88-42.19-83.05-12.88-22.48-26.11-43.59-38.74-62.68a1271.932 1271.932 0 0 0-33.96-48.77c-21.09-28.86-57.87-28.86-78.97 0a1296.262 1296.262 0 0 0-33.94 48.77c-12.64 19.09-25.86 40.2-38.75 62.68-15 26.17-29.55 54.21-42.19 83.05-23.09 52.69-39.79 108.07-41.26 159.81z" style="fill:#8ce4f9"/>
    <path d="M468.026 317.348c18.189 45.879 30.749 93.094 32.01 137.622h-83.714c5.155-71.025 37.505-119.508 51.704-137.622zM230.969 149.431a1286.108 1286.108 0 0 1 33.945-48.772c21.102-28.857 57.879-28.857 78.97 0a1273.229 1273.229 0 0 1 33.955 48.772c-4.821 2.892-10.248 4.511-15.978 4.511-1.947 0-3.857-.196-5.721-.558-.565 6.656-3.277 12.546-7.877 15.782-5.718 4.023-12.849 2.904-18.583-2.102-6.744 9.93-15.589 15.961-25.275 15.961-9.692 0-18.538-6.029-25.282-15.956-5.733 5.002-12.861 6.119-18.577 2.097-4.6-3.236-7.312-9.127-7.877-15.784a30 30 0 0 1-5.731.56c-5.732 0-11.148-1.619-15.969-4.511z" style="opacity:.5;fill:#8ce4f9"/>
    <path d="M434.957 454.97h335.49c-1.261-44.368-15.582-91.854-35.372-137.03-10.836-24.732-23.313-48.771-36.179-71.217-11.049-19.272-22.386-37.372-33.222-53.743a1093.333 1093.333 0 0 0-29.115-41.82c-18.085-24.744-49.62-24.744-67.714 0a1103.427 1103.427 0 0 0-29.106 41.82c-10.836 16.371-22.173 34.471-33.222 53.743-12.866 22.446-25.343 46.484-36.179 71.217-19.799 45.176-34.12 92.662-35.381 137.03z" style="fill:#8ce4f9"/>
    <path d="M539.734 192.981a1104.235 1104.235 0 0 1 29.106-41.82c18.094-24.744 49.629-24.744 67.714 0a1091.407 1091.407 0 0 1 29.115 41.82c-4.134 2.48-8.787 3.868-13.7 3.868-1.67 0-3.307-.168-4.905-.478-.485 5.707-2.81 10.758-6.754 13.532-4.903 3.449-11.018 2.49-15.935-1.803-5.783 8.515-13.367 13.686-21.673 13.686-8.311 0-15.896-5.169-21.679-13.682-4.916 4.289-11.028 5.247-15.929 1.798-3.944-2.775-6.27-7.826-6.754-13.534-1.601.311-3.242.48-4.915.48-4.912.001-9.556-1.387-13.691-3.867z" style="opacity:.5;fill:#8ce4f9"/>
  </g>
  <path d="M749.997 295.91V500h-750V270.52c3.07 1.43 5.35 4.27 6.02 7.69 2.71-1.34 5.76-2.11 8.99-2.11 2.85 0 5.55.59 8.01 1.64 4.35-11.36 15.34-19.42 28.22-19.42 14.06 0 25.88 9.61 29.25 22.62 2.7-.68 5.53-1.05 8.44-1.05 19.04 0 34.48 15.44 34.48 34.48 0 4.18-.74 8.18-2.1 11.88a54.791 54.791 0 0 1 19.44 12.56c5-5.04 11.92-8.15 19.57-8.15 6.41 0 12.3 2.19 16.99 5.85 8.39-7.14 19.26-11.45 31.14-11.45 1.45 0 2.87.08 4.29.2 3.64-10.97 13.98-18.89 26.18-18.89 11.11 0 20.69 6.57 25.05 16.05 2.8-.46 5.68-.71 8.61-.71 14.05 0 26.81 5.52 36.25 14.49a39.79 39.79 0 0 1 14.88-2.88c6.91 0 13.41 1.76 19.07 4.85 9.54-13.19 25.05-21.78 42.58-21.78 20.31 0 37.91 11.53 46.65 28.4 2.65-.45 5.37-.7 8.15-.7 10.37 0 19.97 3.27 27.86 8.81 8.51-15.4 24.92-25.83 43.76-25.83 2.36 0 4.68.17 6.95.49 4.17-17.12 19.59-29.83 37.99-29.83 5.81 0 11.31 1.27 16.27 3.54 7.11-16.18 23.26-27.48 42.07-27.48 5.04 0 9.88.82 14.41 2.32 4.72-11.58 16.08-19.74 29.35-19.74 17.28 0 31.32 13.84 31.67 31.04 10.85 3.8 18.92 13.5 20.36 25.26a36.344 36.344 0 0 1 21.25 2.89 38.335 38.335 0 0 1 17.9-19.65z" style="opacity:.7;clip-path:url(#b);fill:#fff"/>
  <path d="M749.997 347.47V500h-750V322.08c3.07 1.43 5.35 4.27 6.02 7.69 2.71-1.34 5.76-2.11 8.99-2.11 2.85 0 5.55.59 8.01 1.64 4.35-11.36 15.34-19.42 28.22-19.42 14.06 0 25.88 9.61 29.25 22.62 2.7-.68 5.53-1.05 8.44-1.05 19.04 0 34.48 15.44 34.48 34.48 0 4.18-.74 8.18-2.1 11.88a54.791 54.791 0 0 1 19.44 12.56c5-5.04 11.92-8.15 19.57-8.15 6.41 0 12.3 2.19 16.99 5.85 8.39-7.14 19.26-11.45 31.14-11.45 1.45 0 2.87.08 4.29.2 3.64-10.97 13.98-18.89 26.18-18.89 11.11 0 20.69 6.57 25.05 16.05 2.8-.46 5.68-.71 8.61-.71 14.05 0 26.81 5.52 36.25 14.49a39.79 39.79 0 0 1 14.88-2.88c6.91 0 13.41 1.76 19.07 4.85 9.54-13.19 25.05-21.78 42.58-21.78 20.31 0 37.91 11.53 46.65 28.4 2.65-.45 5.37-.7 8.15-.7 10.37 0 19.97 3.27 27.86 8.81 8.51-15.4 24.92-25.83 43.76-25.83 2.36 0 4.68.17 6.95.49 4.17-17.12 19.59-29.83 37.99-29.83 5.81 0 11.31 1.27 16.27 3.54 7.11-16.18 23.26-27.48 42.07-27.48 5.04 0 9.88.82 14.41 2.32 4.72-11.58 16.08-19.74 29.35-19.74 17.28 0 31.32 13.84 31.67 31.04 10.85 3.8 18.92 13.5 20.36 25.26a36.344 36.344 0 0 1 21.25 2.89 38.335 38.335 0 0 1 17.9-19.65z" style="opacity:.7;clip-path:url(#b);fill:#fff"/>
  <g style="clip-path:url(#b)">
    <path d="M454.757 424.464h67.085c4.54-4.484 6.505-9.662 4.474-13.213-1.884-3.292-6.716-4.333-12.325-3.161 2.33-7.812 1.264-14.863-3.196-17.322-3.341-1.842-7.847-.692-12.153 2.576-2.075-6.329-5.924-10.594-10.343-10.594-4.418 0-8.267 4.265-10.343 10.594-4.306-3.268-8.812-4.418-12.154-2.576-4.459 2.459-5.525 9.51-3.195 17.322-5.609-1.172-10.441-.132-12.325 3.161-2.031 3.551-.065 8.729 4.475 13.213z" style="fill:#5d772a"/>
  </g>
  <g style="clip-path:url(#b)">
    <path d="M589.776 424.464h51.557c3.489-3.446 5-7.426 3.439-10.155-1.448-2.53-5.162-3.33-9.472-2.429 1.791-6.004.971-11.423-2.456-13.313-2.568-1.416-6.031-.532-9.34 1.98-1.595-4.864-4.553-8.142-7.949-8.142-3.395 0-6.354 3.278-7.949 8.142-3.31-2.512-6.773-3.396-9.341-1.98-3.427 1.89-4.247 7.309-2.456 13.313-4.31-.901-8.025-.101-9.472 2.429-1.561 2.729-.051 6.709 3.439 10.155z" style="fill:#5d772a"/>
  </g>
  <g style="clip-path:url(#b)">
    <path d="M610.611 424.464h32.241c2.182-2.155 3.126-4.644 2.15-6.35-.905-1.582-3.228-2.082-5.923-1.519 1.12-3.754.607-7.143-1.536-8.325-1.606-.885-3.771-.333-5.841 1.238-.997-3.042-2.847-5.092-4.971-5.092-2.123 0-3.973 2.05-4.971 5.092-2.07-1.571-4.235-2.123-5.841-1.238-2.143 1.182-2.655 4.571-1.536 8.325-2.695-.563-5.018-.063-5.923 1.519-.976 1.706-.031 4.195 2.151 6.35z" style="fill:#739937"/>
  </g>
  <g style="clip-path:url(#b)">
    <path d="M317.069 424.464h47.192c3.194-3.154 4.576-6.797 3.147-9.295-1.325-2.316-4.725-3.048-8.67-2.224 1.639-5.495.889-10.456-2.248-12.185-2.35-1.296-5.52-.487-8.549 1.812-1.46-4.452-4.168-7.453-7.276-7.453-3.108 0-5.816 3-7.276 7.453-3.029-2.299-6.199-3.108-8.55-1.812-3.137 1.73-3.887 6.69-2.248 12.185-3.946-.825-7.345-.092-8.67 2.224-1.429 2.498-.047 6.141 3.148 9.295z" style="fill:#5d772a"/>
  </g>
  <g style="clip-path:url(#b)">
    <path d="M440.006 424.464h47.192c3.194-3.154 4.576-6.797 3.147-9.295-1.325-2.316-4.725-3.048-8.67-2.224 1.639-5.495.889-10.456-2.248-12.185-2.35-1.296-5.52-.487-8.549 1.812-1.46-4.452-4.168-7.453-7.276-7.453s-5.816 3-7.276 7.453c-3.029-2.299-6.199-3.108-8.55-1.812-3.137 1.73-3.887 6.69-2.248 12.185-3.946-.825-7.345-.092-8.67 2.224-1.429 2.498-.046 6.141 3.148 9.295z" style="fill:#739937"/>
  </g>
  <g style="clip-path:url(#b)">
    <path d="M311.544 424.464h32.241c2.182-2.155 3.126-4.644 2.15-6.35-.905-1.582-3.228-2.082-5.923-1.519 1.12-3.754.607-7.143-1.536-8.325-1.606-.885-3.771-.333-5.841 1.238-.997-3.042-2.847-5.092-4.971-5.092-2.123 0-3.973 2.05-4.971 5.092-2.07-1.571-4.235-2.123-5.841-1.238-2.143 1.182-2.656 4.571-1.536 8.325-2.695-.563-5.018-.063-5.923 1.519-.975 1.706-.031 4.195 2.151 6.35z" style="fill:#739937"/>
  </g>
  <path d="M411.699 225.839h27.492c1.861-1.837 2.666-3.96 1.834-5.415-.772-1.349-2.753-1.776-5.051-1.295.955-3.201.518-6.091-1.31-7.099-1.369-.755-3.216-.284-4.981 1.056-.85-2.594-2.428-4.342-4.239-4.342s-3.388 1.748-4.239 4.342c-1.765-1.339-3.612-1.811-4.981-1.056-1.827 1.008-2.264 3.898-1.309 7.099-2.299-.48-4.279-.054-5.051 1.295-.831 1.456-.026 3.578 1.835 5.415z" style="clip-path:url(#b);fill:#739937"/>
  <path d="M430.689 225.839h17.091c1.157-1.142 1.657-2.462 1.14-3.366-.48-.839-1.711-1.104-3.14-.805.593-1.99.322-3.787-.814-4.413-.851-.469-1.999-.176-3.096.656-.529-1.612-1.509-2.699-2.635-2.699s-2.106 1.087-2.635 2.699c-1.097-.833-2.245-1.126-3.096-.656-1.136.626-1.408 2.423-.814 4.413-1.429-.299-2.66-.034-3.14.805-.519.905-.018 2.224 1.139 3.366z" style="clip-path:url(#b);fill:#8cc63f"/>
  <g style="clip-path:url(#b)">
    <path d="M382.219 225.7h-24.477a29.216 29.216 0 0 1 .728-5.962c.124-.529.261-1.049.411-1.556.087-.29.177-.575.274-.857a23.28 23.28 0 0 1 .562-1.5 20.1 20.1 0 0 1 1.699-3.242c.435-.671.905-1.29 1.404-1.854.253-.29.517-.565.789-.823 1.855-1.778 4.036-2.8 6.371-2.8 2.335 0 4.517 1.023 6.371 2.8.272.258.535.533.789.823.499.563.968 1.182 1.404 1.854a20.138 20.138 0 0 1 1.699 3.242c.201.485.39.985.562 1.5.098.282.187.567.274.857a27.22 27.22 0 0 1 .978 4.943c.091.841.146 1.7.162 2.575z" style="fill:#818ca1"/>
    <path d="M392.485 225.7h-18.169c.012-.649.053-1.287.119-1.911a20.69 20.69 0 0 1 .726-3.669c.065-.215.131-.427.204-.636.127-.382.268-.753.417-1.113a14.87 14.87 0 0 1 1.261-2.406c.323-.498.672-.958 1.042-1.376.188-.215.384-.419.586-.611 1.377-1.32 2.996-2.079 4.729-2.079s3.352.759 4.729 2.079c.202.191.397.396.586.611.37.418.719.878 1.042 1.376.474.727.897 1.533 1.261 2.406.149.36.29.731.417 1.113a17.5 17.5 0 0 1 .509 1.791c.188.807.329 1.647.421 2.514.067.624.109 1.262.12 1.911z" style="fill:#a0aecd"/>
  </g>
  <path d="M400.46 224.158s2.892-3.875.636-4.28c-2.256-.405-4.974 2.024-4.974 2.024s1.793-5.668-.521-5.494c-1.353.102-2.841 2.732-3.846 4.902-1.005-2.17-2.493-4.8-3.846-4.902-2.313-.174-.52 5.494-.52 5.494s-2.718-2.429-4.974-2.024c-2.256.405.636 4.28.636 4.28s-4.222-1.379-4.454 1.682h26.316c-.231-3.061-4.453-1.682-4.453-1.682z" style="clip-path:url(#b);fill:#8cc63f"/>
  <g style="clip-path:url(#b)">
    <path d="M352.175 228.876h104.894v210.648H352.175z" style="fill:#873c07"/>
    <path d="M457.068 229.274v13.964a7.934 7.934 0 0 1-1.888.222h-.027c-2.434 0-4.609-1.046-6.145-2.684-.564 1.638-1.37 2.684-2.249 2.684-.009 0-.019-.009-.019-.009-.009 0-.009.009-.009.009-.898 0-1.693-1.036-2.258-2.674a8.73 8.73 0 0 1-2.878 2.008v-.018a8.358 8.358 0 0 1-3.294.685 8.376 8.376 0 0 1-6.163-2.702c-.564 1.656-1.37 2.702-2.258 2.702-.898 0-1.694-1.046-2.267-2.702a8.376 8.376 0 0 1-6.163 2.702 8.39 8.39 0 0 1-6.163-2.702c-.565 1.656-1.37 2.702-2.258 2.702-.888 0-1.694-1.046-2.258-2.702a8.39 8.39 0 0 1-6.163 2.702 8.376 8.376 0 0 1-6.163-2.702c-.564 1.656-1.369 2.702-2.267 2.702-.888 0-1.693-1.046-2.249-2.702-1.545 1.656-3.738 2.702-6.172 2.702a8.39 8.39 0 0 1-6.163-2.702c-.555 1.656-1.361 2.702-2.258 2.702-.889 0-1.694-1.046-2.258-2.702a8.376 8.376 0 0 1-6.163 2.702 8.39 8.39 0 0 1-6.163-2.702c-.564 1.656-1.37 2.702-2.258 2.702-.888 0-1.694-1.046-2.258-2.702a8.39 8.39 0 0 1-6.163 2.702 8.01 8.01 0 0 1-1.897-.222v-13.964h104.892z" style="opacity:.5;fill:#873c07"/>
    <path d="M352.177 390.698h104.892v48.826H352.177zm0-56.499h104.892v33.481H352.177zm0-36.971h104.892v19.531H352.177z" style="opacity:.3;fill:#873c07"/>
    <path d="M463.602 228.876v1.832c0 4.655-3.767 8.43-8.421 8.43h-.027a8.368 8.368 0 0 1-6.145-2.684c-.564 1.647-1.37 2.684-2.249 2.684h-.028c-.898 0-1.693-1.037-2.258-2.674a8.73 8.73 0 0 1-2.878 2.008v-.019a8.358 8.358 0 0 1-3.294.685 8.376 8.376 0 0 1-6.163-2.702c-.564 1.657-1.37 2.702-2.258 2.702-.898 0-1.694-1.046-2.267-2.702a8.372 8.372 0 0 1-6.163 2.702 8.39 8.39 0 0 1-6.163-2.702c-.565 1.657-1.37 2.702-2.258 2.702-.888 0-1.694-1.046-2.258-2.702a8.387 8.387 0 0 1-6.163 2.702 8.376 8.376 0 0 1-6.163-2.702c-.564 1.657-1.369 2.702-2.267 2.702-.888 0-1.693-1.046-2.249-2.702-1.545 1.657-3.738 2.702-6.172 2.702a8.39 8.39 0 0 1-6.163-2.702c-.555 1.657-1.361 2.702-2.258 2.702-.889 0-1.694-1.046-2.258-2.702a8.372 8.372 0 0 1-6.163 2.702 8.39 8.39 0 0 1-6.163-2.702c-.564 1.657-1.37 2.702-2.258 2.702-.888 0-1.694-1.046-2.258-2.702a8.387 8.387 0 0 1-6.163 2.702 8.432 8.432 0 0 1-8.43-8.43c0-.111.009-.888.009-1.832.009-.74.009-1.573.018-2.286a1.647 1.647 0 0 1 1.647-1.629h114.61c.897 0 1.638.722 1.647 1.629.008.713.017 1.546.027 2.286z" style="fill:#8cc63f"/>
    <path d="M463.602 228.876H345.651c.009-.74.009-1.573.018-2.286a1.647 1.647 0 0 1 1.647-1.629h114.61c.897 0 1.638.722 1.647 1.629l.029 2.286z" style="opacity:.5;fill:#8cc63f"/>
  </g>
  <path d="M229.381 369.48h39.283c2.659-2.626 3.809-5.658 2.62-7.737-1.103-1.928-3.933-2.537-7.217-1.851 1.364-4.574.74-8.704-1.871-10.143-1.956-1.079-4.595-.405-7.117 1.509-1.215-3.706-3.469-6.204-6.056-6.204s-4.841 2.498-6.056 6.204c-2.522-1.914-5.16-2.587-7.117-1.508-2.611 1.44-3.236 5.569-1.871 10.143-3.284-.687-6.114-.077-7.217 1.851-1.191 2.078-.04 5.11 2.619 7.736z" style="clip-path:url(#b);fill:#739937"/>
  <path d="M292.674 369.48h24.42c1.653-1.632 2.368-3.517 1.629-4.81-.686-1.199-2.445-1.577-4.487-1.151.848-2.844.46-5.411-1.163-6.306-1.216-.671-2.857-.252-4.424.938-.755-2.304-2.157-3.857-3.765-3.857s-3.009 1.553-3.765 3.857c-1.568-1.19-3.208-1.609-4.424-.938-1.623.895-2.011 3.462-1.163 6.306-2.042-.427-3.801-.048-4.487 1.151-.74 1.293-.024 3.178 1.629 4.81z" style="clip-path:url(#b);fill:#8cc63f"/>
  <g style="clip-path:url(#b)">
    <path d="M283.011 351.398a.892.892 0 0 1-.653-.283c-1.092-.343-6.283-.604-10.114-.797-10.922-.55-11.566-.739-11.566-1.971 0-1.232.644-1.421 11.566-1.97a600.85 600.85 0 0 0 3.552-.186c-1.208-.068-2.436-.13-3.548-.185-10.927-.548-11.571-.738-11.571-1.969s.644-1.42 11.568-1.969c1.108-.056 2.329-.117 3.532-.184-1.203-.067-2.426-.128-3.534-.184-10.922-.548-11.566-.737-11.566-1.968 0-1.231.644-1.421 11.571-1.969 1.107-.056 2.328-.117 3.531-.184a518.597 518.597 0 0 0-3.533-.184c-10.925-.548-11.568-.737-11.568-1.969 0-1.231.644-1.421 11.571-1.969 1.105-.056 2.325-.117 3.527-.184-1.202-.067-2.421-.128-3.527-.184-10.927-.548-11.571-.737-11.571-1.969 0-1.231.644-1.42 11.566-1.967a590.62 590.62 0 0 0 3.526-.184c-1.2-.067-2.417-.128-3.522-.184-10.927-.548-11.571-.738-11.571-1.969s.644-1.42 11.568-1.968c1.104-.055 2.321-.116 3.52-.183a515.973 515.973 0 0 0-3.52-.184c-10.925-.549-11.568-.738-11.568-1.968s.644-1.419 11.566-1.966c1.103-.055 2.319-.116 3.518-.183a590.321 590.321 0 0 0-3.515-.183c-10.925-.549-11.568-.738-11.568-1.968 0-1.231.644-1.42 11.568-1.968 3.83-.192 9.022-.453 10.113-.794a.891.891 0 0 1 1.545.61c0 1.231-.644 1.42-11.568 1.968-1.105.055-2.324.117-3.524.184 1.2.067 2.419.129 3.524.184 10.925.548 11.568.738 11.568 1.968 0 1.231-.644 1.42-11.571 1.967-1.1.055-2.314.116-3.509.183 1.196.067 2.41.128 3.511.183 10.925.548 11.568.738 11.568 1.968s-.644 1.42-11.568 1.967a516.78 516.78 0 0 0-3.524.184c1.201.067 2.421.129 3.526.184 10.922.548 11.566.737 11.566 1.968 0 1.231-.644 1.42-11.571 1.968-1.105.055-2.322.116-3.522.184 1.201.067 2.42.128 3.526.184 10.922.549 11.566.738 11.566 1.968 0 1.231-.644 1.42-11.566 1.969-1.11.056-2.333.117-3.539.185 1.204.068 2.428.129 3.537.184 10.925.548 11.568.737 11.568 1.969 0 1.231-.644 1.42-11.566 1.969-1.108.056-2.331.117-3.535.184 1.203.068 2.424.128 3.53.184 10.927.548 11.571.738 11.571 1.969s-.644 1.42-11.568 1.969c-1.109.056-2.332.117-3.537.184 1.206.068 2.429.129 3.539.185 10.922.548 11.566.737 11.566 1.969 0 1.232-.644 1.421-11.571 1.971-1.115.056-2.346.118-3.557.186 1.211.068 2.442.13 3.557.186 10.927.55 11.571.739 11.571 1.971a.889.889 0 0 1-.891.891z" style="fill:#818ca1"/>
    <path d="M292.582 339.188v30.292h-40.581v-30.292h7.755l1.359 5.378 1.05-5.378h20.495l.967 3.827.751-3.827z" style="fill:#c47a2a"/>
    <path d="M267.318 339.188h3.652v30.292h-3.652zm7.087 0h1.251v30.292h-1.251zm13.341 0h4.836v30.292h-4.836z" style="opacity:.5;fill:#c47a2a"/>
    <path d="M292.582 308.896v8.777h-40.581v-8.777h7.755l1.359 1.559 1.05-1.559h20.495l.967 1.109.751-1.109z" style="fill:#c47a2a"/>
    <path d="M267.318 308.896h3.652v8.776h-3.652zm7.087 0h1.251v8.776h-1.251zm13.341 0h4.836v8.776h-4.836z" style="opacity:.5;fill:#c47a2a"/>
  </g>
  <g style="clip-path:url(#b)">
    <path d="M19.567 293.599H-7.456c.017-1.048.079-2.078.178-3.085.137-1.4.346-2.758.626-4.06.137-.634.288-1.257.454-1.865.096-.347.195-.689.303-1.027.189-.617.399-1.216.62-1.798a24.864 24.864 0 0 1 1.876-3.885c.48-.804.999-1.546 1.549-2.221.28-.347.571-.677.871-.986 2.047-2.13 4.456-3.356 7.034-3.356s4.986 1.225 7.034 3.356c.3.309.591.639.871.986.55.675 1.069 1.417 1.549 2.221a24.864 24.864 0 0 1 1.876 3.885c.221.582.431 1.18.62 1.798.108.338.207.68.303 1.027.166.608.317 1.23.454 1.865.28 1.302.489 2.659.626 4.06.1 1.007.161 2.036.179 3.085z" style="fill:#818ca1"/>
    <path d="M2.574 293.599h-20.058a28.015 28.015 0 0 1 .597-5.303c.102-.471.214-.933.337-1.384.071-.258.145-.512.225-.762.141-.458.296-.903.46-1.334a18.454 18.454 0 0 1 1.392-2.884c.357-.597.741-1.148 1.15-1.649.208-.258.424-.503.646-.732 1.52-1.581 3.308-2.491 5.221-2.491s3.701.91 5.221 2.491c.223.229.439.474.647.732.409.501.793 1.052 1.15 1.649.523.871.99 1.837 1.392 2.884.164.432.32.876.461 1.334a22.455 22.455 0 0 1 .562 2.146c.208.967.363 1.974.465 3.013.073.748.119 1.512.132 2.29z" style="fill:#a0aecd"/>
  </g>
  <g style="clip-path:url(#b)">
    <path d="M481.268 360.114c-.367 0-3.3-1.758-3.3-1.758l-7.97 13.053V355.59h-13.023v15.819l-7.97-13.053s-2.933 1.758-3.3 1.758c-.251 0 6.796 13.171 11.27 21.487v46.665h13.023v-46.665c4.474-8.316 11.521-21.487 11.27-21.487z" style="fill:#c47a2a"/>
    <g style="opacity:.5">
      <path d="M469.998 355.59h-13.023v11.914c1.932 1.495 4.146 2.363 6.511 2.363s4.579-.867 6.511-2.362V355.59zm-20.993 2.765s-2.933 1.758-3.3 1.758c-.112 0 1.243 2.65 3.175 6.319a39.971 39.971 0 0 0 3.761-2.123l-3.636-5.954zm32.263 1.759c-.367 0-3.3-1.758-3.3-1.758l-3.635 5.954c1.242.792 2.5 1.5 3.761 2.123 1.931-3.67 3.286-6.319 3.174-6.319z" style="fill:#c47a2a"/>
    </g>
    <path d="M512.766 332.936c-.027-.023-.055-.041-.082-.063 8.352-9.265 11.264-20.107 6.336-26.412-4.064-5.198-12.412-5.962-21.386-2.784-3.254-15.88-17.307-27.824-34.148-27.824-16.842 0-30.894 11.944-34.149 27.824-8.973-3.178-17.321-2.414-21.385 2.784-4.929 6.304-2.015 17.147 6.336 26.412-.027.023-.055.04-.082.063-6.222 5.351 1.237 15.091 9.766 19.878-.613 2.903-.291 5.616 1.132 7.82 4.252 6.581 16.673 6.118 27.743-1.034.231-.149.449-.308.675-.46 2.476 3.767 6.016 6.143 9.963 6.143 3.946 0 7.487-2.376 9.963-6.143.226.153.444.311.675.46 11.07 7.152 23.492 7.615 27.744 1.034 1.424-2.203 1.746-4.917 1.132-7.82 8.53-4.787 15.989-14.527 9.767-19.878z" style="fill:#8cc63f"/>
    <path d="M512.766 332.936c-.027-.023-.055-.041-.082-.063 4.396-4.877 7.266-10.186 8.298-15.045-11.589 15.795-32.992 26.403-57.496 26.403-24.504 0-45.907-10.608-57.496-26.403 1.032 4.859 3.902 10.168 8.298 15.045-.027.023-.055.04-.082.063-6.222 5.351 1.237 15.091 9.766 19.878-.613 2.903-.291 5.616 1.132 7.82 4.252 6.581 16.673 6.118 27.743-1.034.231-.149.449-.308.675-.46 2.476 3.767 6.016 6.143 9.963 6.143 3.946 0 7.487-2.376 9.963-6.143.226.153.444.311.675.46 11.07 7.152 23.492 7.615 27.744 1.034 1.424-2.203 1.746-4.917 1.132-7.82 8.53-4.787 15.989-14.527 9.767-19.878z" style="opacity:.3;fill:#739937"/>
  </g>
  <g style="clip-path:url(#b)">
    <path d="M55.597 238.919c-.313 0-2.814-1.499-2.814-1.499l-6.797 11.131v-13.49H34.881v13.49l-6.797-11.131s-2.501 1.499-2.814 1.499c-.214 0 5.796 11.232 9.611 18.324v39.795h11.105v-39.795c3.816-7.092 9.825-18.324 9.611-18.324z" style="fill:#c47a2a"/>
    <g style="opacity:.5">
      <path d="M45.986 235.061H34.881v10.16c1.647 1.275 3.535 2.015 5.553 2.015 2.017 0 3.905-.74 5.553-2.015v-10.16zm-17.902 2.358s-2.501 1.499-2.814 1.499c-.096 0 1.06 2.26 2.707 5.389a33.966 33.966 0 0 0 3.208-1.811l-3.101-5.077zm27.513 1.5c-.313 0-2.814-1.499-2.814-1.499l-3.1 5.078a34.175 34.175 0 0 0 3.207 1.811c1.647-3.131 2.803-5.39 2.707-5.39z" style="fill:#c47a2a"/>
    </g>
    <path d="M82.459 215.742c-.023-.02-.047-.035-.07-.054 7.122-7.901 9.606-17.147 5.403-22.523-3.466-4.433-10.585-5.084-18.237-2.374-2.775-13.542-14.759-23.728-29.121-23.728-14.363 0-26.346 10.186-29.121 23.728-7.652-2.71-14.771-2.059-18.237 2.374-4.203 5.376-1.719 14.622 5.403 22.523l-.07.054c-5.306 4.563 1.055 12.869 8.329 16.952-.523 2.476-.248 4.79.966 6.669 3.626 5.613 14.219 5.218 23.659-.882.197-.127.383-.262.576-.393 2.111 3.213 5.131 5.239 8.496 5.239s6.385-2.026 8.496-5.239c.193.13.378.265.575.393 9.441 6.1 20.033 6.494 23.659.882 1.214-1.879 1.489-4.193.966-6.669 7.273-4.083 13.633-12.389 8.328-16.952z" style="fill:#8cc63f"/>
    <path d="M82.459 215.742c-.023-.02-.047-.035-.07-.054 3.749-4.159 6.196-8.687 7.076-12.83-9.883 13.47-28.135 22.516-49.031 22.516s-39.149-9.046-49.032-22.516c.88 4.144 3.327 8.671 7.076 12.83l-.07.054c-5.306 4.563 1.055 12.869 8.329 16.952-.523 2.476-.248 4.79.966 6.669 3.626 5.613 14.219 5.218 23.659-.882.197-.127.383-.262.576-.393 2.111 3.213 5.131 5.239 8.496 5.239s6.385-2.026 8.496-5.239c.193.13.378.265.575.393 9.441 6.1 20.033 6.494 23.659.882 1.214-1.879 1.489-4.193.966-6.669 7.274-4.083 13.634-12.389 8.329-16.952z" style="opacity:.3;fill:#739937"/>
  </g>
  <g style="clip-path:url(#b)">
    <path d="M749.029 317.331c-.313 0-2.814-1.499-2.814-1.499l-6.797 11.131v-13.49h-11.105v13.49l-6.797-11.131s-2.502 1.499-2.814 1.499c-.214 0 5.796 11.232 9.611 18.324v39.795h11.105v-39.795c3.815-7.092 9.824-18.324 9.611-18.324z" style="fill:#c47a2a"/>
    <g style="opacity:.5">
      <path d="M739.417 313.473h-11.105v10.16c1.647 1.275 3.535 2.015 5.553 2.015 2.017 0 3.905-.74 5.553-2.015v-10.16zm-17.902 2.359s-2.502 1.499-2.814 1.499c-.096 0 1.06 2.26 2.707 5.389a33.827 33.827 0 0 0 3.207-1.811l-3.1-5.077zm27.514 1.499c-.313 0-2.814-1.499-2.814-1.499l-3.1 5.078a34.063 34.063 0 0 0 3.208 1.811c1.645-3.13 2.801-5.39 2.706-5.39z" style="fill:#c47a2a"/>
    </g>
    <path d="m775.89 294.155-.07-.054c7.122-7.901 9.606-17.147 5.403-22.523-3.466-4.433-10.585-5.084-18.237-2.374-2.775-13.542-14.759-23.728-29.121-23.728-14.363 0-26.346 10.186-29.121 23.728-7.652-2.71-14.771-2.059-18.237 2.374-4.203 5.376-1.719 14.622 5.403 22.523l-.07.054c-5.306 4.563 1.055 12.869 8.329 16.952-.523 2.476-.248 4.79.966 6.669 3.626 5.613 14.219 5.218 23.659-.882.197-.127.383-.262.576-.393 2.111 3.213 5.131 5.238 8.496 5.238s6.385-2.026 8.496-5.238c.193.13.378.265.576.393 9.441 6.1 20.033 6.494 23.659.882 1.214-1.879 1.489-4.193.966-6.669 7.272-4.083 13.632-12.389 8.327-16.952z" style="fill:#8cc63f"/>
    <path d="m775.89 294.155-.07-.054c3.749-4.159 6.196-8.687 7.076-12.83-9.883 13.47-28.135 22.516-49.031 22.516-20.896 0-39.148-9.046-49.032-22.516.88 4.144 3.328 8.671 7.076 12.83l-.07.054c-5.306 4.563 1.055 12.869 8.329 16.952-.523 2.476-.248 4.79.966 6.669 3.626 5.613 14.219 5.218 23.659-.882.197-.127.383-.262.576-.393 2.111 3.213 5.131 5.238 8.496 5.238s6.385-2.026 8.496-5.238c.193.13.378.265.576.393 9.441 6.1 20.033 6.494 23.659.882 1.214-1.879 1.489-4.193.966-6.669 7.273-4.083 13.633-12.389 8.328-16.952z" style="opacity:.3;fill:#739937"/>
  </g>
  <g style="clip-path:url(#b)">
    <path d="M74.174 291.261s-2.718-7.577-5.032-7.75c-2.313-.173-.521 5.495-.521 5.495s-2.718-2.429-4.974-2.024c-2.256.405.636 4.28.636 4.28s-4.222-1.379-4.453 1.682h14.922l-.578-1.683zm8.329 0s2.718-7.577 5.032-7.75c2.313-.173.521 5.495.521 5.495s2.718-2.429 4.974-2.024c2.256.405-.636 4.28-.636 4.28s4.222-1.379 4.453 1.682H81.924l.579-1.683z" style="fill:#739937"/>
  </g>
  <g style="clip-path:url(#b)">
    <path d="M83.823 292.944H72.854l.809-8.526.412-4.362.357-3.704a75.774 75.774 0 0 1 3.91-.095c1.364 0 2.673.032 3.902.095l.357 3.704.412 4.362.81 8.526z" style="fill:#ffca54"/>
    <path d="M83.014 284.418a61.323 61.323 0 0 1-9.351 0l.412-4.362.357-3.704a75.774 75.774 0 0 1 3.91-.095c1.364 0 2.673.032 3.902.095l.357 3.704.413 4.362z" style="opacity:.5;fill:#d37416"/>
    <path d="M95.41 276.757c0 7.082-34.143 7.082-34.143 0 0-.238.016-.484.056-.737.174-1.118.714-2.308 1.515-3.513 1.047-1.602 2.53-3.236 4.172-4.798a51.752 51.752 0 0 1 1.959-1.753 67.345 67.345 0 0 1 2.117-1.753c4.188-3.315 10.318-3.315 14.506 0a58.237 58.237 0 0 1 2.11 1.753c.666.563 1.325 1.15 1.959 1.753 1.642 1.555 3.133 3.196 4.18 4.79.793 1.206 1.34 2.395 1.515 3.513.03.253.054.499.054.745z" style="fill:#ff5766"/>
    <path d="m89.66 267.708-3.632 2.102-3.847-2.229-3.846 2.229-3.854-2.229-3.846 2.229-3.625-2.102a51.752 51.752 0 0 1 1.959-1.753l1.666.967 3.846-2.237 3.854 2.237 3.846-2.237 3.847 2.237 1.673-.967c.666.563 1.324 1.15 1.959 1.753zm5.694 8.304-5.338 3.085-5.837-3.387-5.853 3.387-5.845-3.387-5.845 3.387-5.314-3.077c.174-1.118.714-2.308 1.515-3.513l3.799 2.205 5.845-3.394 5.845 3.394 5.853-3.394 5.837 3.394 3.823-2.213c.793 1.205 1.341 2.394 1.515 3.513z" style="fill:#ffca54"/>
  </g>
  <g style="clip-path:url(#b)">
    <path d="M123.945 292.943h48.026c3.25-3.21 4.657-6.917 3.203-9.459-1.349-2.357-4.808-3.102-8.823-2.263 1.668-5.593.905-10.641-2.288-12.401-2.392-1.319-5.618-.496-8.701 1.844-1.486-4.531-4.241-7.585-7.404-7.585-3.163 0-5.919 3.053-7.404 7.585-3.083-2.34-6.309-3.163-8.701-1.844-3.192 1.76-3.956 6.809-2.287 12.401-4.015-.839-7.475-.094-8.824 2.263-1.454 2.542-.047 6.249 3.203 9.459z" style="fill:#739937"/>
  </g>
  <path d="M111.503 292.943h36.374c2.462-2.431 3.527-5.239 2.426-7.164-1.021-1.785-3.642-2.35-6.683-1.714 1.263-4.236.685-8.059-1.733-9.392-1.812-.999-4.255-.375-6.59 1.397-1.125-3.432-3.212-5.745-5.608-5.745-2.396 0-4.483 2.313-5.608 5.744-2.335-1.772-4.778-2.396-6.59-1.397-2.418 1.333-2.996 5.156-1.732 9.392-3.041-.636-5.661-.071-6.683 1.714-1.1 1.926-.035 4.734 2.427 7.165zm-86.18-1.682s2.892-3.875.636-4.28c-2.256-.405-4.974 2.024-4.974 2.024s1.793-5.668-.521-5.495c-1.353.102-2.841 2.732-3.846 4.902-1.005-2.17-2.493-4.8-3.846-4.902-2.314-.173-.521 5.495-.521 5.495s-2.718-2.429-4.974-2.024c-2.256.405.636 4.28.636 4.28s-4.222-1.379-4.453 1.682h26.316c-.231-3.061-4.453-1.682-4.453-1.682zm232.404 76.537s2.892-3.875.636-4.28c-2.256-.405-4.974 2.024-4.974 2.024s1.793-5.668-.521-5.495c-1.353.101-2.841 2.732-3.846 4.902-1.005-2.169-2.493-4.8-3.847-4.902-2.313-.173-.52 5.495-.52 5.495s-2.718-2.429-4.974-2.024c-2.256.405.636 4.28.636 4.28s-4.222-1.379-4.453 1.682h26.316c-.231-3.061-4.453-1.682-4.453-1.682z" style="clip-path:url(#b);fill:#8cc63f"/>
  <g style="clip-path:url(#b)">
    <path d="M181.129 261.936s4.492-.064 7.224 2.667c2.731 2.731 2.667 7.224 2.667 7.224s-4.492.064-7.224-2.667c-2.731-2.731-2.667-7.224-2.667-7.224zm21.138 3.379s.064 4.492-2.667 7.224c-2.731 2.731-7.224 2.667-7.224 2.667s-.064-4.492 2.667-7.224c2.732-2.731 7.224-2.667 7.224-2.667z" style="fill:#5d772a"/>
    <path d="M190.547 257.031h2.169v58.708h-2.169z" style="fill:#739937"/>
    <path d="M192.715 257.031v4.866c-.358.024-.721.038-1.085.038-.363 0-.726-.014-1.084-.038v-4.866h2.169z" style="opacity:.5;fill:#739937"/>
    <path d="M210.459 242.068c0 10.404-8.434 18.837-18.837 18.837-10.404 0-18.837-8.434-18.837-18.837 0-10.404 8.434-12.735 18.837-12.735s18.837 2.332 18.837 12.735z" style="fill:#ff5766"/>
    <path d="M207.697 237.623c0 .827-.395 1.622-1.114 2.347-2.347 2.374-8.165 4.055-14.962 4.055-6.797 0-12.605-1.676-14.957-4.055-.725-.725-1.119-1.514-1.119-2.347 0-3.536 7.197-6.402 16.076-6.402 8.879 0 16.076 2.865 16.076 6.402z" style="fill:#c13647"/>
    <path d="M206.583 239.97c-2.347 2.374-8.165 4.055-14.962 4.055-6.797 0-12.605-1.676-14.957-4.055 2.352-2.385 8.16-4.061 14.957-4.061 6.797 0 12.616 1.681 14.962 4.061z" style="fill:#87263b"/>
    <circle cx="197.626" cy="251.605" r="3.38" style="fill:#ff5766"/>
    <circle cx="197.626" cy="251.03" r="3.38" style="fill:#fff"/>
    <path d="M199.124 251.03a1.498 1.498 0 1 1-2.997 0 1.498 1.498 0 0 1 2.997 0z" style="fill:#c13647"/>
    <path d="M197.231 250.266a.892.892 0 1 1-1.784 0 .892.892 0 0 1 1.784 0z" style="fill:#fff"/>
    <circle cx="185.617" cy="251.605" r="3.38" style="fill:#ff5766"/>
    <circle cx="185.617" cy="251.03" r="3.38" style="fill:#fff"/>
    <path d="M187.114 251.03a1.498 1.498 0 1 1-2.997 0 1.498 1.498 0 0 1 2.997 0z" style="fill:#c13647"/>
    <path d="M185.222 250.266a.892.892 0 1 1-1.784 0 .892.892 0 0 1 1.784 0z" style="fill:#fff"/>
  </g>
  <g style="clip-path:url(#b)">
    <path d="M-28.94 297.3h242.759v201.866H-28.94z" style="fill:#873c07"/>
    <path d="M-28.936 441.373h242.759v57.793H-28.936zm0-66.874h242.759v39.629H-28.936zm0-43.76h242.759v23.117H-28.936z" style="opacity:.3;fill:#873c07"/>
    <path d="M213.823 297.304v18.388a7.651 7.651 0 0 1-.925.046c-3.174 0-6.015-1.36-8.014-3.507-.731 2.147-1.777 3.507-2.934 3.507-1.166 0-2.202-1.36-2.943-3.507-1.999 2.147-4.84 3.507-8.014 3.507-3.165 0-6.015-1.36-8.014-3.507-.731 2.147-1.777 3.507-2.933 3.507-1.157 0-2.202-1.36-2.933-3.507-1.999 2.147-4.849 3.507-8.014 3.507-3.174 0-6.015-1.36-8.014-3.507-.74 2.147-1.777 3.507-2.943 3.507-1.157 0-2.203-1.36-2.934-3.507-1.999 2.147-4.849 3.507-8.014 3.507-3.174 0-6.015-1.36-8.014-3.507-.731 2.147-1.777 3.507-2.934 3.507-1.166 0-2.202-1.36-2.943-3.507-1.999 2.147-4.84 3.507-8.014 3.507-3.165 0-6.015-1.36-8.014-3.507-.731 2.147-1.777 3.507-2.933 3.507-1.157 0-2.202-1.36-2.933-3.507-1.999 2.147-4.849 3.507-8.014 3.507-3.174 0-6.015-1.36-8.014-3.507-.74 2.147-1.777 3.507-2.943 3.507-1.157 0-2.203-1.36-2.934-3.507-1.999 2.147-4.849 3.507-8.014 3.507-3.174 0-6.015-1.36-8.014-3.507-.731 2.147-1.777 3.507-2.934 3.507-1.166 0-2.202-1.36-2.943-3.507-1.999 2.147-4.84 3.507-8.014 3.507-3.165 0-6.015-1.36-8.014-3.507-.731 2.147-1.777 3.507-2.933 3.507-1.157 0-2.202-1.36-2.933-3.507-1.999 2.147-4.849 3.507-8.014 3.507-3.174 0-6.015-1.36-8.014-3.507-.74 2.147-1.777 3.507-2.943 3.507-1.157 0-2.203-1.36-2.934-3.507-1.999 2.147-4.849 3.507-8.014 3.507-3.174 0-6.015-1.36-8.014-3.507-.731 2.147-1.777 3.507-2.934 3.507-1.166 0-2.202-1.36-2.943-3.507-1.999 2.147-4.84 3.507-8.014 3.507-3.165 0-6.015-1.36-8.014-3.507-.731 2.147-1.777 3.507-2.933 3.507-1.157 0-2.202-1.36-2.933-3.507-1.999 2.147-4.849 3.507-8.014 3.507-.314 0-.62-.009-.925-.046v-18.388h242.761z" style="opacity:.5;fill:#873c07"/>
    <path d="M223.846 299.692c0 6.052-4.896 10.957-10.948 10.957-3.174 0-6.015-1.36-8.014-3.507-.731 2.147-1.777 3.507-2.934 3.507-1.166 0-2.202-1.36-2.943-3.507-1.999 2.147-4.84 3.507-8.014 3.507-3.165 0-6.015-1.36-8.014-3.507-.731 2.147-1.777 3.507-2.933 3.507-1.157 0-2.202-1.36-2.933-3.507-1.999 2.147-4.849 3.507-8.014 3.507-3.174 0-6.015-1.36-8.014-3.507-.74 2.147-1.777 3.507-2.943 3.507-1.157 0-2.203-1.36-2.934-3.507-1.999 2.147-4.849 3.507-8.014 3.507-3.174 0-6.015-1.36-8.014-3.507-.731 2.147-1.777 3.507-2.934 3.507-1.166 0-2.202-1.36-2.943-3.507-1.999 2.147-4.84 3.507-8.014 3.507-3.165 0-6.015-1.36-8.014-3.507-.731 2.147-1.777 3.507-2.933 3.507-1.157 0-2.202-1.36-2.933-3.507-1.999 2.147-4.849 3.507-8.014 3.507-3.174 0-6.015-1.36-8.014-3.507-.74 2.147-1.777 3.507-2.943 3.507-1.157 0-2.203-1.36-2.934-3.507-1.999 2.147-4.849 3.507-8.014 3.507-3.174 0-6.015-1.36-8.014-3.507-.731 2.147-1.777 3.507-2.934 3.507-1.166 0-2.202-1.36-2.943-3.507-1.999 2.147-4.84 3.507-8.014 3.507-3.165 0-6.015-1.36-8.014-3.507-.731 2.147-1.777 3.507-2.933 3.507-1.157 0-2.202-1.36-2.933-3.507-1.999 2.147-4.849 3.507-8.014 3.507-3.174 0-6.015-1.36-8.014-3.507-.74 2.147-1.777 3.507-2.943 3.507-1.157 0-2.203-1.36-2.934-3.507-1.999 2.147-4.849 3.507-8.014 3.507-3.174 0-6.015-1.36-8.014-3.507-.731 2.147-1.777 3.507-2.934 3.507-1.166 0-2.202-1.36-2.943-3.507-1.999 2.147-4.84 3.507-8.014 3.507-3.165 0-6.015-1.36-8.014-3.507-.731 2.147-1.777 3.507-2.933 3.507-1.157 0-2.202-1.36-2.933-3.507-1.999 2.147-4.849 3.507-8.014 3.507-6.052 0-10.956-4.905-10.956-10.957 0-.148.009-1.157.009-2.388.009-.953.018-2.045.028-2.971a2.142 2.142 0 0 1 2.147-2.119h258.454a2.15 2.15 0 0 1 2.147 2.119c.009.925.019 2.017.019 2.971.011 1.231.011 2.24.011 2.388z" style="fill:#8cc63f"/>
    <path d="M223.836 297.304H-38.958c.009-.953.018-2.045.028-2.971a2.142 2.142 0 0 1 2.147-2.119h258.454a2.15 2.15 0 0 1 2.147 2.119c.009.926.018 2.018.018 2.971z" style="opacity:.5;fill:#8cc63f"/>
    <path d="M213.819 368.556v130.61H64.359V386.943c-5.617-.472-10.031-5.173-10.031-10.91 0-.111.009-.712.009-1.536v-.851c.009-.602.009-1.249.019-1.888v-.148c0-.324.009-.639.009-.935a2.143 2.143 0 0 1 2.147-2.119h157.307z" style="opacity:.5;fill:#873c07"/>
  </g>
  <g style="clip-path:url(#b)">
    <path d="M41.23 424.464h51.558c3.489-3.446 4.999-7.426 3.438-10.155-1.448-2.53-5.162-3.33-9.472-2.429 1.791-6.004.971-11.423-2.456-13.313-2.568-1.416-6.031-.532-9.34 1.98-1.595-4.864-4.553-8.142-7.949-8.142s-6.354 3.278-7.949 8.142c-3.31-2.512-6.773-3.396-9.34-1.98-3.427 1.89-4.247 7.309-2.456 13.313-4.311-.901-8.025-.101-9.472 2.429-1.561 2.729-.051 6.709 3.438 10.155z" style="fill:#5d772a"/>
  </g>
  <g style="clip-path:url(#b)">
    <path d="M62.066 424.464h32.241c2.182-2.155 3.126-4.644 2.15-6.35-.905-1.582-3.228-2.082-5.923-1.519 1.12-3.754.607-7.143-1.536-8.325-1.606-.885-3.771-.333-5.841 1.238-.997-3.042-2.847-5.092-4.971-5.092-2.123 0-3.973 2.05-4.971 5.092-2.07-1.571-4.235-2.123-5.841-1.238-2.143 1.182-2.655 4.571-1.535 8.325-2.696-.563-5.018-.063-5.924 1.519-.976 1.706-.032 4.195 2.151 6.35z" style="fill:#739937"/>
  </g>
  <g style="clip-path:url(#b)">
    <path d="M206.937 369.158H182.46a29.17 29.17 0 0 1 .728-5.962c.124-.529.261-1.049.412-1.556.087-.29.177-.575.274-.857.171-.515.361-1.015.562-1.5a20.18 20.18 0 0 1 1.699-3.242c.435-.671.905-1.29 1.404-1.854.253-.29.517-.565.789-.823 1.855-1.778 4.036-2.8 6.371-2.8 2.335 0 4.517 1.023 6.371 2.8.272.258.536.533.789.823.499.563.968 1.182 1.404 1.854a20.138 20.138 0 0 1 1.699 3.242c.201.485.391.985.562 1.5.098.282.187.567.274.857a27.22 27.22 0 0 1 .978 4.944c.09.84.145 1.699.161 2.574z" style="fill:#818ca1"/>
    <path d="M217.203 369.158h-18.169a21.655 21.655 0 0 1 .541-4.425c.092-.393.194-.778.305-1.155.065-.215.131-.427.204-.636.127-.383.268-.753.417-1.113a14.87 14.87 0 0 1 1.261-2.406c.323-.498.672-.958 1.042-1.376.188-.215.384-.42.585-.611 1.377-1.32 2.996-2.079 4.729-2.079s3.353.759 4.729 2.079c.202.191.398.396.586.611.37.418.719.878 1.042 1.376.474.727.897 1.533 1.261 2.406.149.36.29.731.417 1.113a17.5 17.5 0 0 1 .51 1.791c.188.806.329 1.647.421 2.514.066.624.107 1.262.119 1.911z" style="fill:#a0aecd"/>
  </g>
  <path d="M192.315 367.476s2.892-3.875.636-4.28c-2.256-.405-4.974 2.024-4.974 2.024s1.793-5.668-.52-5.495c-1.353.102-2.841 2.732-3.846 4.902-1.005-2.17-2.493-4.8-3.846-4.902-2.314-.174-.521 5.495-.521 5.495s-2.718-2.429-4.974-2.024c-2.256.405.636 4.28.636 4.28s-4.222-1.379-4.454 1.682h26.316c-.231-3.061-4.453-1.682-4.453-1.682z" style="clip-path:url(#b);fill:#8cc63f"/>
  <g style="clip-path:url(#b)">
    <path d="M720.941 369.158h-24.477a29.17 29.17 0 0 1 .728-5.962c.124-.529.261-1.049.411-1.556.087-.29.177-.575.274-.857a23.28 23.28 0 0 1 .562-1.5 20.18 20.18 0 0 1 1.699-3.242c.435-.671.905-1.29 1.403-1.854.253-.29.517-.565.789-.823 1.855-1.778 4.036-2.8 6.371-2.8 2.335 0 4.517 1.023 6.371 2.8.272.258.536.533.789.823.499.563.968 1.182 1.404 1.854a20.138 20.138 0 0 1 1.699 3.242c.2.485.39.985.562 1.5.098.282.187.567.274.857a27.22 27.22 0 0 1 .978 4.944c.092.84.147 1.699.163 2.574z" style="fill:#818ca1"/>
    <path d="M731.207 369.158h-18.169c.012-.649.053-1.287.119-1.911a20.69 20.69 0 0 1 .726-3.669c.065-.215.131-.427.204-.636.127-.383.268-.753.417-1.113a14.87 14.87 0 0 1 1.261-2.406c.323-.498.672-.958 1.042-1.376.188-.215.384-.42.586-.611 1.377-1.32 2.996-2.079 4.729-2.079s3.353.759 4.729 2.079c.202.191.397.396.586.611.37.418.719.878 1.042 1.376.474.727.897 1.533 1.261 2.406.149.36.29.731.417 1.113a17.5 17.5 0 0 1 .509 1.791 21.655 21.655 0 0 1 .541 4.425z" style="fill:#a0aecd"/>
  </g>
  <path d="M706.319 367.476s2.892-3.875.636-4.28c-2.256-.405-4.974 2.024-4.974 2.024s1.793-5.668-.521-5.495c-1.353.102-2.841 2.732-3.846 4.902-1.005-2.17-2.493-4.8-3.846-4.902-2.314-.174-.521 5.495-.521 5.495s-2.718-2.429-4.974-2.024c-2.256.405.636 4.28.636 4.28s-4.222-1.379-4.453 1.682h26.316c-.231-3.061-4.453-1.682-4.453-1.682z" style="clip-path:url(#b);fill:#8cc63f"/>
  <g style="clip-path:url(#b)">
    <path d="M125.526 367.475s-2.718-7.577-5.032-7.75c-2.313-.173-.521 5.495-.521 5.495s-2.718-2.429-4.974-2.024c-2.256.405.636 4.28.636 4.28s-4.222-1.379-4.453 1.682h14.922l-.578-1.683zm8.329 0s2.718-7.577 5.032-7.75c2.313-.173.52 5.495.52 5.495s2.718-2.429 4.974-2.024c2.256.405-.636 4.28-.636 4.28s4.222-1.379 4.454 1.682h-14.922l.578-1.683z" style="fill:#739937"/>
  </g>
  <g style="clip-path:url(#b)">
    <path d="M134.956 369.158h-10.531l.777-8.186.396-4.188.343-3.556a73.254 73.254 0 0 1 3.754-.091c1.31 0 2.566.03 3.746.091l.343 3.556.396 4.188.776 8.186z" style="fill:#ffca54"/>
    <path d="M134.179 360.972a59.007 59.007 0 0 1-8.978 0l.396-4.188.343-3.556a73.254 73.254 0 0 1 3.754-.091c1.31 0 2.566.03 3.746.091l.343 3.556.396 4.188z" style="opacity:.5;fill:#d37416"/>
    <path d="M146.081 353.616c0 6.8-32.781 6.8-32.781 0 0-.229.015-.465.053-.708.168-1.074.685-2.216 1.454-3.373 1.005-1.538 2.429-3.107 4.005-4.607a49.36 49.36 0 0 1 1.881-1.683 64.992 64.992 0 0 1 2.033-1.683c4.021-3.183 9.907-3.183 13.927 0a55.65 55.65 0 0 1 2.025 1.683c.64.541 1.272 1.104 1.881 1.683 1.576 1.493 3.008 3.069 4.013 4.599.761 1.157 1.287 2.3 1.454 3.373.032.244.055.48.055.716z" style="fill:#a385ff"/>
    <path d="m140.56 344.928-3.488 2.018-3.693-2.14-3.693 2.14-3.701-2.14-3.693 2.14-3.48-2.018a49.36 49.36 0 0 1 1.881-1.683l1.599.929 3.693-2.147 3.701 2.147 3.693-2.147 3.693 2.147 1.607-.929c.64.541 1.272 1.104 1.881 1.683zm5.468 7.973-5.125 2.962-5.605-3.251-5.619 3.251-5.612-3.251-5.612 3.251-5.102-2.954c.168-1.074.685-2.216 1.454-3.373l3.647 2.117 5.612-3.259 5.612 3.259 5.619-3.259 5.605 3.259 3.67-2.125c.763 1.157 1.288 2.299 1.456 3.373z" style="fill:#ffca54"/>
  </g>
  <g style="clip-path:url(#b)">
    <path d="M518.255 421.424s-2.718-7.577-5.032-7.75c-2.314-.173-.521 5.495-.521 5.495s-2.718-2.429-4.974-2.024c-2.256.405.636 4.28.636 4.28s-4.222-1.379-4.453 1.682h14.922l-.578-1.683zm4.514 0s2.718-7.577 5.032-7.75.521 5.495.521 5.495 2.718-2.429 4.974-2.024c2.256.405-.636 4.28-.636 4.28s4.222-1.379 4.453 1.682h-14.922l.578-1.683z" style="fill:#739937"/>
  </g>
  <g style="clip-path:url(#b)">
    <path d="M552.201 424.36h-11.508l.849-8.946.433-4.577.374-3.886c1.29-.066 2.671-.1 4.103-.1 1.431 0 2.804.033 4.094.1l.374 3.886.433 4.577.848 8.946z" style="fill:#ffca54"/>
    <path d="M551.352 415.415c-3.195.25-6.615.25-9.811 0l.433-4.577.374-3.886c1.29-.066 2.671-.1 4.103-.1 1.431 0 2.804.033 4.094.1l.374 3.886.433 4.577z" style="opacity:.5;fill:#d37416"/>
    <path d="M564.359 407.376c0 7.431-35.824 7.431-35.824 0 0-.25.017-.508.058-.774.183-1.173.749-2.422 1.589-3.686 1.099-1.681 2.655-3.395 4.377-5.034a54.41 54.41 0 0 1 2.055-1.839c.74-.641 1.49-1.257 2.222-1.839 4.394-3.478 10.826-3.478 15.22 0a60.821 60.821 0 0 1 2.213 1.839c.699.591 1.39 1.207 2.055 1.839 1.722 1.631 3.287 3.354 4.385 5.026.832 1.265 1.406 2.513 1.589 3.686.036.267.061.524.061.782z" style="fill:#a385ff"/>
    <path d="m558.326 397.882-3.811 2.205-4.036-2.338-4.036 2.338-4.044-2.338-4.036 2.338-3.803-2.205a54.41 54.41 0 0 1 2.055-1.839l1.747 1.015 4.036-2.347 4.044 2.347 4.036-2.347 4.036 2.347 1.756-1.015c.699.591 1.39 1.206 2.056 1.839zm5.974 8.712-5.6 3.237-6.125-3.553-6.141 3.553-6.133-3.553-6.133 3.553-5.575-3.229c.183-1.173.749-2.422 1.589-3.686l3.986 2.313 6.133-3.561 6.133 3.561 6.141-3.561 6.125 3.561 4.011-2.322c.832 1.266 1.406 2.514 1.589 3.687z" style="fill:#ffca54"/>
  </g>
  <g style="clip-path:url(#b)">
    <path d="M525.364 424.36h-9.456l.697-7.35.356-3.76.308-3.193a65.536 65.536 0 0 1 3.371-.082c1.176 0 2.304.027 3.364.082l.308 3.193.356 3.76.696 7.35z" style="fill:#ffca54"/>
    <path d="M524.667 417.01a52.906 52.906 0 0 1-8.061 0l.356-3.76.308-3.193a65.536 65.536 0 0 1 3.371-.082c1.176 0 2.304.027 3.364.082l.308 3.193.354 3.76z" style="opacity:.5;fill:#d37416"/>
    <path d="M535.353 410.406c0 6.106-29.434 6.106-29.434 0 0-.205.014-.417.048-.636.15-.964.615-1.99 1.306-3.029.903-1.381 2.181-2.79 3.596-4.137a43.307 43.307 0 0 1 1.689-1.511 58.978 58.978 0 0 1 1.826-1.511c3.61-2.858 8.895-2.858 12.505 0 .602.479 1.217.984 1.819 1.511a38.84 38.84 0 0 1 1.689 1.511c1.415 1.34 2.701 2.755 3.603 4.13.684 1.039 1.155 2.065 1.306 3.029.027.219.047.431.047.643z" style="fill:#ff5766"/>
    <path d="m530.396 402.604-3.132 1.812-3.316-1.921-3.316 1.921-3.323-1.921-3.316 1.921-3.125-1.812a43.307 43.307 0 0 1 1.689-1.511l1.436.834 3.316-1.928 3.323 1.928 3.316-1.928 3.316 1.928 1.443-.834c.575.486 1.142.992 1.689 1.511zm4.909 7.159-4.602 2.66-5.032-2.919-5.046 2.919-5.039-2.919-5.039 2.919-4.581-2.653c.15-.964.615-1.99 1.306-3.029l3.275 1.901 5.039-2.926 5.039 2.926 5.046-2.926 5.032 2.926 3.296-1.908c.684 1.039 1.156 2.065 1.306 3.029z" style="fill:#ffca54"/>
  </g>
  <g style="clip-path:url(#b)">
    <path d="M678.295 370.601h-9.456l.697-7.35.355-3.76.308-3.193a65.536 65.536 0 0 1 3.371-.082c1.176 0 2.304.027 3.364.082l.308 3.193.356 3.76.697 7.35z" style="fill:#ffca54"/>
    <path d="M677.598 363.251a52.906 52.906 0 0 1-8.061 0l.355-3.76.308-3.193a65.536 65.536 0 0 1 3.371-.082c1.176 0 2.304.027 3.364.082l.308 3.193.355 3.76z" style="opacity:.5;fill:#d37416"/>
    <path d="M688.285 356.646c0 6.106-29.434 6.106-29.434 0 0-.205.014-.417.048-.636.15-.964.615-1.99 1.306-3.029.903-1.381 2.181-2.79 3.596-4.137a43.307 43.307 0 0 1 1.689-1.511 56.474 56.474 0 0 1 1.826-1.511c3.61-2.858 8.895-2.858 12.505 0 .602.479 1.217.984 1.819 1.511a38.84 38.84 0 0 1 1.689 1.511c1.415 1.34 2.701 2.755 3.603 4.13.684 1.039 1.155 2.065 1.306 3.029.026.219.047.431.047.643z" style="fill:#ff5766"/>
    <path d="m683.328 348.845-3.131 1.812-3.316-1.921-3.316 1.921-3.323-1.921-3.316 1.921-3.125-1.812a43.307 43.307 0 0 1 1.689-1.511l1.436.834 3.316-1.928 3.323 1.928 3.316-1.928 3.316 1.928 1.443-.834a39.41 39.41 0 0 1 1.688 1.511zm4.909 7.158-4.602 2.66-5.032-2.919-5.046 2.919-5.039-2.919-5.039 2.919-4.581-2.653c.15-.964.615-1.99 1.306-3.029l3.275 1.901 5.039-2.926 5.039 2.926 5.046-2.926 5.032 2.926 3.296-1.908c.684 1.04 1.155 2.065 1.306 3.029z" style="fill:#ffca54"/>
  </g>
  <g style="clip-path:url(#b)">
    <path d="M81.805 373.643h242.759v58.559H81.805z" style="fill:#a55813"/>
    <path d="M82.321 418.388H325.08v13.573H82.321zm0-15.706H325.08v9.307H82.321zm0-10.277H325.08v5.429H82.321z" style="opacity:.3;fill:#a55813"/>
    <path d="M324.564 373.644v18.388a7.651 7.651 0 0 1-.925.046c-3.174 0-6.015-1.36-8.014-3.507-.731 2.147-1.777 3.507-2.934 3.507-1.166 0-2.202-1.36-2.943-3.507-1.999 2.147-4.84 3.507-8.014 3.507-3.165 0-6.015-1.36-8.014-3.507-.731 2.147-1.777 3.507-2.933 3.507-1.157 0-2.202-1.36-2.934-3.507-1.999 2.147-4.849 3.507-8.014 3.507-3.174 0-6.015-1.36-8.014-3.507-.74 2.147-1.777 3.507-2.943 3.507-1.157 0-2.203-1.36-2.934-3.507-1.999 2.147-4.849 3.507-8.014 3.507-3.174 0-6.015-1.36-8.014-3.507-.731 2.147-1.777 3.507-2.934 3.507-1.166 0-2.202-1.36-2.943-3.507-1.999 2.147-4.84 3.507-8.014 3.507-3.165 0-6.015-1.36-8.014-3.507-.731 2.147-1.777 3.507-2.933 3.507-1.157 0-2.202-1.36-2.933-3.507-1.999 2.147-4.849 3.507-8.014 3.507-3.174 0-6.015-1.36-8.014-3.507-.74 2.147-1.777 3.507-2.943 3.507-1.157 0-2.203-1.36-2.934-3.507-1.999 2.147-4.849 3.507-8.014 3.507-3.174 0-6.015-1.36-8.014-3.507-.731 2.147-1.777 3.507-2.934 3.507-1.166 0-2.202-1.36-2.943-3.507-1.999 2.147-4.84 3.507-8.014 3.507-3.165 0-6.015-1.36-8.014-3.507-.731 2.147-1.777 3.507-2.934 3.507-1.157 0-2.202-1.36-2.933-3.507-1.999 2.147-4.849 3.507-8.014 3.507-3.174 0-6.015-1.36-8.014-3.507-.74 2.147-1.777 3.507-2.943 3.507-1.157 0-2.203-1.36-2.934-3.507-1.999 2.147-4.849 3.507-8.014 3.507-3.174 0-6.015-1.36-8.014-3.507-.731 2.147-1.777 3.507-2.934 3.507-1.166 0-2.202-1.36-2.943-3.507-1.999 2.147-4.84 3.507-8.014 3.507-3.165 0-6.015-1.36-8.014-3.507-.731 2.147-1.777 3.507-2.933 3.507-1.157 0-2.202-1.36-2.933-3.507-1.999 2.147-4.849 3.507-8.014 3.507-.314 0-.62-.009-.925-.046v-18.388h242.763z" style="opacity:.5;fill:#a55813"/>
    <path d="M334.583 374.497v1.536c0 6.052-4.895 10.957-10.948 10.957-3.174 0-6.015-1.36-8.014-3.507-.731 2.147-1.777 3.507-2.933 3.507-1.166 0-2.203-1.36-2.943-3.507-1.999 2.147-4.84 3.507-8.014 3.507-3.165 0-6.015-1.36-8.014-3.507-.731 2.147-1.777 3.507-2.934 3.507-1.157 0-2.202-1.36-2.933-3.507-1.999 2.147-4.849 3.507-8.014 3.507-3.174 0-6.015-1.36-8.014-3.507-.74 2.147-1.777 3.507-2.943 3.507-1.157 0-2.203-1.36-2.933-3.507-1.999 2.147-4.849 3.507-8.014 3.507-3.174 0-6.015-1.36-8.014-3.507-.731 2.147-1.777 3.507-2.933 3.507-1.166 0-2.203-1.36-2.943-3.507-1.999 2.147-4.84 3.507-8.014 3.507-3.165 0-6.015-1.36-8.014-3.507-.731 2.147-1.777 3.507-2.934 3.507-1.157 0-2.202-1.36-2.933-3.507-1.999 2.147-4.849 3.507-8.014 3.507-3.174 0-6.015-1.36-8.014-3.507-.74 2.147-1.777 3.507-2.943 3.507-1.157 0-2.202-1.36-2.933-3.507-1.999 2.147-4.849 3.507-8.014 3.507-3.174 0-6.015-1.36-8.014-3.507-.731 2.147-1.777 3.507-2.934 3.507-1.166 0-2.202-1.36-2.943-3.507-1.999 2.147-4.84 3.507-8.014 3.507-3.165 0-6.015-1.36-8.014-3.507-.731 2.147-1.777 3.507-2.934 3.507-1.157 0-2.202-1.36-2.933-3.507-1.999 2.147-4.849 3.507-8.014 3.507-3.174 0-6.015-1.36-8.014-3.507-.74 2.147-1.777 3.507-2.943 3.507-1.157 0-2.202-1.36-2.933-3.507-1.999 2.147-4.849 3.507-8.014 3.507-3.174 0-6.015-1.36-8.014-3.507-.731 2.147-1.777 3.507-2.933 3.507-1.166 0-2.203-1.36-2.943-3.507-1.999 2.147-4.84 3.507-8.014 3.507-3.165 0-6.015-1.36-8.014-3.507-.731 2.147-1.777 3.507-2.934 3.507-1.157 0-2.202-1.36-2.933-3.507-1.999 2.147-4.849 3.507-8.014 3.507-6.052 0-10.957-4.905-10.957-10.957 0-.111.009-.712.009-1.536v-.851l.028-2.97a2.143 2.143 0 0 1 2.147-2.119h258.454a2.15 2.15 0 0 1 2.147 2.119c.009.925.018 2.017.018 2.97.002.295.002.582.011.851z" style="fill:#8cc63f"/>
    <path d="M334.572 372.695c-.003-.687-.009-1.392-.016-2.02a2.15 2.15 0 0 0-2.147-2.119H73.955a2.143 2.143 0 0 0-2.147 2.119l-.019 2.02h262.783z" style="fill:#8cc63f"/>
  </g>
  <g style="clip-path:url(#b)">
    <path d="M18.175 425.808H-4.749s6.413-4.131 6.413-14.343v-36.646l3.3-.107v-.107l1.749.057 1.749-.057v.107l3.3.107v36.646c0 10.211 6.413 14.343 6.413 14.343z" style="fill:#c47a2a"/>
    <path d="M11.762 374.819v9.631a11.748 11.748 0 0 1-5.049 1.135c-1.796 0-3.504-.404-5.049-1.135v-9.631l3.3-.107v-.107l1.749.057 1.749-.057v.107l3.3.107z" style="opacity:.5;fill:#c47a2a"/>
    <path d="M37.463 348.806c-.192-9.592-7.415-17.308-16.318-17.349-3.139-4.99-8.431-8.268-14.431-8.268s-11.291 3.278-14.431 8.268c-8.903.041-16.126 7.757-16.318 17.349-5.144 1.237-8.993 6.195-8.993 12.132 0 6.869 5.147 12.437 11.495 12.437.961 0 1.889-.142 2.781-.382 1.295 6.153 5.769 10.699 11.106 10.699 3.182 0 6.062-1.614 8.143-4.221 1.839 1.121 3.957 1.767 6.217 1.767 2.261 0 4.379-.647 6.218-1.767 2.082 2.607 4.961 4.221 8.143 4.221 5.337 0 9.811-4.546 11.106-10.699.892.24 1.82.382 2.781.382 6.349 0 11.495-5.568 11.495-12.437 0-5.937-3.849-10.895-8.994-12.132z" style="fill:#8cc63f"/>
    <path d="M6.714 371.348c-15.992 0-30.107-6.278-38.574-15.855a13.19 13.19 0 0 0-1.168 5.446c0 6.868 5.147 12.437 11.495 12.437.961 0 1.889-.142 2.781-.382 1.295 6.153 5.769 10.699 11.106 10.699 3.182 0 6.061-1.614 8.143-4.221 1.839 1.121 3.957 1.767 6.217 1.767 2.261 0 4.379-.647 6.218-1.767 2.082 2.607 4.961 4.221 8.143 4.221 5.337 0 9.811-4.546 11.106-10.699.892.24 1.82.382 2.781.382 6.348 0 11.495-5.568 11.495-12.437a13.19 13.19 0 0 0-1.168-5.446c-8.468 9.578-22.583 15.855-38.575 15.855z" style="opacity:.3;fill:#739937"/>
  </g>
  <g style="clip-path:url(#b)">
    <path d="M385.778 425.808h-22.924s6.413-4.131 6.413-14.343v-36.646l3.3-.107v-.107l1.749.057 1.749-.057v.107l3.3.107v36.646c0 10.211 6.413 14.343 6.413 14.343z" style="fill:#c47a2a"/>
    <path d="M379.365 374.819v9.631a11.748 11.748 0 0 1-5.049 1.135c-1.796 0-3.504-.404-5.049-1.135v-9.631l3.3-.107v-.107l1.749.057 1.749-.057v.107l3.3.107z" style="opacity:.5;fill:#c47a2a"/>
    <path d="M405.066 348.806c-.192-9.592-7.415-17.308-16.318-17.349-3.14-4.99-8.431-8.268-14.431-8.268s-11.291 3.278-14.431 8.268c-8.903.041-16.126 7.757-16.318 17.349-5.144 1.237-8.993 6.195-8.993 12.132 0 6.869 5.147 12.437 11.495 12.437.961 0 1.889-.142 2.781-.382 1.294 6.153 5.769 10.699 11.106 10.699 3.182 0 6.061-1.614 8.143-4.221 1.839 1.121 3.957 1.767 6.217 1.767 2.261 0 4.379-.647 6.217-1.767 2.082 2.607 4.961 4.221 8.143 4.221 5.337 0 9.811-4.546 11.106-10.699.892.24 1.82.382 2.781.382 6.349 0 11.495-5.568 11.495-12.437 0-5.937-3.849-10.895-8.993-12.132z" style="fill:#8cc63f"/>
    <path d="M374.317 371.348c-15.992 0-30.107-6.278-38.574-15.855a13.19 13.19 0 0 0-1.168 5.446c0 6.868 5.147 12.437 11.495 12.437.961 0 1.889-.142 2.781-.382 1.295 6.153 5.769 10.699 11.106 10.699 3.182 0 6.061-1.614 8.143-4.221 1.839 1.121 3.957 1.767 6.217 1.767 2.261 0 4.379-.647 6.217-1.767 2.082 2.607 4.961 4.221 8.143 4.221 5.337 0 9.812-4.546 11.106-10.699.892.24 1.82.382 2.781.382 6.349 0 11.495-5.568 11.495-12.437 0-1.956-.424-3.801-1.169-5.446-8.466 9.578-22.581 15.855-38.573 15.855z" style="opacity:.3;fill:#739937"/>
  </g>
  <g style="clip-path:url(#b)">
    <path d="M631.541 373.643H874.3v58.559H631.541z" style="fill:#a55813"/>
    <path d="M632.057 418.388h242.759v13.573H632.057zm0-15.706h242.759v9.307H632.057zm0-10.277h242.759v5.429H632.057z" style="opacity:.3;fill:#a55813"/>
    <path d="M874.3 373.644v18.388a7.651 7.651 0 0 1-.925.046c-3.174 0-6.015-1.36-8.014-3.507-.731 2.147-1.777 3.507-2.934 3.507-1.166 0-2.202-1.36-2.943-3.507-1.999 2.147-4.84 3.507-8.014 3.507-3.165 0-6.015-1.36-8.014-3.507-.731 2.147-1.777 3.507-2.933 3.507-1.157 0-2.202-1.36-2.933-3.507-1.999 2.147-4.849 3.507-8.014 3.507-3.174 0-6.015-1.36-8.014-3.507-.74 2.147-1.777 3.507-2.943 3.507-1.157 0-2.203-1.36-2.934-3.507-1.999 2.147-4.849 3.507-8.014 3.507-3.174 0-6.015-1.36-8.014-3.507-.731 2.147-1.777 3.507-2.934 3.507-1.166 0-2.202-1.36-2.943-3.507-1.999 2.147-4.84 3.507-8.014 3.507-3.165 0-6.015-1.36-8.014-3.507-.731 2.147-1.777 3.507-2.933 3.507-1.157 0-2.202-1.36-2.933-3.507-1.999 2.147-4.849 3.507-8.014 3.507-3.174 0-6.015-1.36-8.014-3.507-.74 2.147-1.777 3.507-2.943 3.507-1.157 0-2.203-1.36-2.934-3.507-1.999 2.147-4.849 3.507-8.014 3.507-3.174 0-6.015-1.36-8.014-3.507-.731 2.147-1.777 3.507-2.934 3.507-1.166 0-2.202-1.36-2.943-3.507-1.999 2.147-4.84 3.507-8.014 3.507-3.165 0-6.015-1.36-8.014-3.507-.731 2.147-1.777 3.507-2.933 3.507-1.157 0-2.202-1.36-2.933-3.507-1.999 2.147-4.849 3.507-8.014 3.507-3.174 0-6.015-1.36-8.014-3.507-.74 2.147-1.777 3.507-2.943 3.507-1.157 0-2.203-1.36-2.934-3.507-1.999 2.147-4.849 3.507-8.014 3.507-3.174 0-6.015-1.36-8.014-3.507-.731 2.147-1.777 3.507-2.934 3.507-1.166 0-2.202-1.36-2.943-3.507-1.999 2.147-4.84 3.507-8.014 3.507-3.165 0-6.015-1.36-8.014-3.507-.731 2.147-1.777 3.507-2.933 3.507s-2.202-1.36-2.933-3.507c-1.999 2.147-4.849 3.507-8.014 3.507-.315 0-.62-.009-.925-.046v-18.388H874.3z" style="opacity:.5;fill:#a55813"/>
    <path d="M884.32 374.497v1.536c0 6.052-4.895 10.957-10.948 10.957-3.174 0-6.015-1.36-8.014-3.507-.731 2.147-1.777 3.507-2.933 3.507-1.166 0-2.203-1.36-2.943-3.507-1.999 2.147-4.84 3.507-8.014 3.507-3.165 0-6.015-1.36-8.014-3.507-.731 2.147-1.777 3.507-2.934 3.507s-2.202-1.36-2.933-3.507c-1.999 2.147-4.849 3.507-8.014 3.507-3.174 0-6.015-1.36-8.014-3.507-.74 2.147-1.777 3.507-2.943 3.507-1.157 0-2.203-1.36-2.933-3.507-1.999 2.147-4.849 3.507-8.014 3.507-3.174 0-6.015-1.36-8.014-3.507-.731 2.147-1.777 3.507-2.933 3.507-1.166 0-2.203-1.36-2.943-3.507-1.999 2.147-4.84 3.507-8.014 3.507-3.165 0-6.015-1.36-8.014-3.507-.731 2.147-1.777 3.507-2.934 3.507-1.157 0-2.202-1.36-2.933-3.507-1.999 2.147-4.849 3.507-8.014 3.507-3.174 0-6.015-1.36-8.014-3.507-.74 2.147-1.777 3.507-2.943 3.507-1.157 0-2.203-1.36-2.933-3.507-1.999 2.147-4.849 3.507-8.014 3.507-3.174 0-6.015-1.36-8.014-3.507-.731 2.147-1.777 3.507-2.933 3.507-1.166 0-2.203-1.36-2.943-3.507-1.999 2.147-4.84 3.507-8.014 3.507-3.165 0-6.015-1.36-8.014-3.507-.731 2.147-1.777 3.507-2.934 3.507-1.157 0-2.202-1.36-2.933-3.507-1.999 2.147-4.849 3.507-8.014 3.507-3.174 0-6.015-1.36-8.014-3.507-.74 2.147-1.777 3.507-2.943 3.507-1.157 0-2.203-1.36-2.934-3.507-1.999 2.147-4.849 3.507-8.014 3.507-3.174 0-6.015-1.36-8.014-3.507-.731 2.147-1.777 3.507-2.933 3.507-1.166 0-2.203-1.36-2.943-3.507-1.999 2.147-4.84 3.507-8.014 3.507-3.165 0-6.015-1.36-8.014-3.507-.731 2.147-1.777 3.507-2.934 3.507-1.157 0-2.202-1.36-2.933-3.507-1.999 2.147-4.849 3.507-8.014 3.507-6.052 0-10.957-4.905-10.957-10.957 0-.111.009-.712.009-1.536v-.851c.009-.953.018-2.045.028-2.97a2.143 2.143 0 0 1 2.147-2.119h258.454a2.15 2.15 0 0 1 2.147 2.119c.009.925.018 2.017.018 2.97.001.295.001.582.011.851z" style="fill:#8cc63f"/>
    <path d="M884.308 372.695c-.003-.687-.01-1.392-.016-2.02a2.15 2.15 0 0 0-2.147-2.119H623.691a2.143 2.143 0 0 0-2.147 2.119l-.019 2.02h262.783z" style="fill:#8cc63f"/>
  </g>
  <g style="clip-path:url(#b)">
    <path d="M561.227 350.578s6.487-.093 10.431 3.851c3.944 3.944 3.851 10.431 3.851 10.431s-6.487.092-10.431-3.851c-3.943-3.944-3.851-10.431-3.851-10.431zm30.523 4.879s.092 6.487-3.851 10.431c-3.944 3.944-10.431 3.851-10.431 3.851s-.093-6.487 3.851-10.431c3.944-3.944 10.431-3.851 10.431-3.851zm-30.523 21.861s6.487-.092 10.431 3.851c3.944 3.944 3.851 10.431 3.851 10.431s-6.487.093-10.431-3.851c-3.943-3.944-3.851-10.431-3.851-10.431zm30.523 4.879s.092 6.487-3.851 10.431c-3.944 3.944-10.431 3.851-10.431 3.851s-.093-6.487 3.851-10.431c3.944-3.943 10.431-3.851 10.431-3.851z" style="fill:#5d772a"/>
    <path d="M574.826 343.494h3.132v84.772h-3.132z" style="fill:#739937"/>
    <path d="M577.957 343.494v7.026c-.517.034-1.042.054-1.566.054s-1.048-.02-1.566-.054v-7.026h3.132z" style="opacity:.5;fill:#739937"/>
    <path d="M603.578 321.889c0 15.022-12.178 27.2-27.2 27.2-15.022 0-27.2-12.178-27.2-27.2 0-15.022 12.178-18.389 27.2-18.389 15.022 0 27.2 3.366 27.2 18.389z" style="fill:#a385ff"/>
    <path d="M599.591 315.47c0 1.195-.57 2.342-1.608 3.389-3.389 3.428-11.79 5.856-21.605 5.856-9.815 0-18.2-2.42-21.597-5.856-1.046-1.046-1.616-2.186-1.616-3.389 0-5.107 10.393-9.245 23.213-9.245s23.213 4.138 23.213 9.245z" style="fill:#6a54b8"/>
    <path d="M597.982 318.858c-3.389 3.428-11.79 5.856-21.605 5.856-9.815 0-18.2-2.42-21.597-5.856 3.396-3.443 11.782-5.864 21.597-5.864 9.815.001 18.217 2.429 21.605 5.864z" style="fill:#493c87"/>
    <circle cx="585.048" cy="335.659" r="4.88" style="opacity:.3;fill:#6a54b8"/>
    <circle cx="585.048" cy="334.83" r="4.88" style="fill:#fff"/>
    <path d="M587.211 334.83a2.163 2.163 0 1 1-4.326 0 2.163 2.163 0 0 1 4.326 0z" style="fill:#6a54b8"/>
    <path d="M584.478 333.726a1.287 1.287 0 1 1-2.573 0 1.287 1.287 0 0 1 2.573 0z" style="fill:#fff"/>
    <circle cx="567.707" cy="335.659" r="4.88" style="opacity:.3;fill:#6a54b8"/>
    <circle cx="567.707" cy="334.83" r="4.88" style="fill:#fff"/>
    <path d="M569.87 334.83a2.163 2.163 0 1 1-4.326 0 2.163 2.163 0 0 1 4.326 0z" style="fill:#6a54b8"/>
    <path d="M567.137 333.726a1.287 1.287 0 1 1-2.573 0 1.287 1.287 0 0 1 2.573 0z" style="fill:#fff"/>
  </g>
  <g style="clip-path:url(#b)">
    <path d="M-63.043 433.172h866.898v75.158H-63.043z" style="fill:#a55813"/>
    <path d="M-63.047 490.912h866.901v17.421H-63.047zm0-20.159h866.901v11.946H-63.047zm0-13.192h866.901v6.969H-63.047z" style="opacity:.3;fill:#a55813"/>
    <path d="M803.855 433.172v15.962a13.174 13.174 0 0 1-3.575.495c-3.773 0-7.151-1.617-9.527-4.169-.869 2.552-2.112 4.169-3.487 4.169-1.386 0-2.618-1.617-3.498-4.169-2.376 2.552-5.753 4.169-9.527 4.169-3.762 0-7.151-1.617-9.527-4.169-.869 2.552-2.112 4.169-3.487 4.169s-2.618-1.617-3.487-4.169c-2.376 2.552-5.764 4.169-9.527 4.169-3.773 0-7.151-1.617-9.527-4.169-.88 2.552-2.112 4.169-3.498 4.169-1.375 0-2.618-1.617-3.487-4.169-2.376 2.552-5.765 4.169-9.527 4.169-3.773 0-7.151-1.617-9.527-4.169-.869 2.552-2.112 4.169-3.487 4.169-1.386 0-2.618-1.617-3.498-4.169-2.376 2.552-5.753 4.169-9.527 4.169-3.762 0-7.151-1.617-9.527-4.169-.869 2.552-2.112 4.169-3.487 4.169s-2.618-1.617-3.487-4.169c-2.376 2.552-5.764 4.169-9.527 4.169-3.773 0-7.151-1.617-9.527-4.169-.88 2.552-2.112 4.169-3.498 4.169-1.375 0-2.618-1.617-3.487-4.169-2.376 2.552-5.764 4.169-9.527 4.169-3.773 0-7.151-1.617-9.527-4.169-.869 2.552-2.112 4.169-3.487 4.169-1.386 0-2.618-1.617-3.498-4.169-2.376 2.552-5.754 4.169-9.527 4.169-3.762 0-7.151-1.617-9.527-4.169-.869 2.552-2.112 4.169-3.487 4.169s-2.618-1.617-3.487-4.169c-2.376 2.552-5.764 4.169-9.527 4.169-3.773 0-7.15-1.617-9.527-4.169-.88 2.552-2.112 4.169-3.499 4.169-1.375 0-2.618-1.617-3.487-4.169-2.376 2.552-5.765 4.169-9.527 4.169-3.773 0-7.151-1.617-9.527-4.169-.869 2.552-2.112 4.169-3.487 4.169-1.386 0-2.618-1.617-3.498-4.169-2.376 2.552-5.753 4.169-9.527 4.169-3.762 0-7.151-1.617-9.527-4.169-.869 2.552-2.112 4.169-3.487 4.169-1.353 0-2.574-1.562-3.443-4.048a12.968 12.968 0 0 1-9.417 4.048h-.154v-.011a12.974 12.974 0 0 1-9.373-4.158c-.869 2.552-2.112 4.169-3.487 4.169-1.386 0-2.618-1.617-3.498-4.169-2.376 2.552-5.753 4.169-9.527 4.169-3.762 0-7.15-1.617-9.527-4.169-.869 2.552-2.112 4.169-3.487 4.169s-2.618-1.617-3.487-4.169c-2.376 2.552-5.764 4.169-9.527 4.169-3.773 0-7.151-1.617-9.527-4.169-.88 2.552-2.112 4.169-3.498 4.169-1.375 0-2.618-1.617-3.487-4.169-2.376 2.552-5.764 4.169-9.527 4.169-3.773 0-7.151-1.617-9.527-4.169-.869 2.552-2.112 4.169-3.487 4.169-1.386 0-2.618-1.617-3.498-4.169-2.376 2.552-5.754 4.169-9.527 4.169-3.762 0-7.15-1.617-9.527-4.169-.869 2.552-2.112 4.169-3.487 4.169s-2.618-1.617-3.487-4.169c-2.376 2.552-5.764 4.169-9.527 4.169-3.773 0-7.151-1.617-9.527-4.169-.88 2.552-2.112 4.169-3.498 4.169-1.375 0-2.618-1.617-3.487-4.169-2.376 2.552-5.764 4.169-9.527 4.169-3.773 0-7.15-1.617-9.527-4.169-.869 2.552-2.112 4.169-3.487 4.169-1.386 0-2.618-1.617-3.498-4.169-2.376 2.552-5.753 4.169-9.527 4.169-3.762 0-7.151-1.617-9.527-4.169-.869 2.552-2.112 4.169-3.487 4.169s-2.618-1.617-3.487-4.169c-2.376 2.552-5.764 4.169-9.527 4.169-3.773 0-7.151-1.617-9.527-4.169-.88 2.552-2.112 4.169-3.498 4.169-1.375 0-2.618-1.617-3.487-4.169-2.376 2.552-5.764 4.169-9.527 4.169-3.773 0-7.151-1.617-9.527-4.169-.869 2.552-2.112 4.169-3.487 4.169-1.386 0-2.618-1.617-3.498-4.169-2.376 2.552-5.753 4.169-9.527 4.169-3.762 0-7.15-1.617-9.527-4.169-.869 2.552-2.112 4.169-3.487 4.169s-2.618-1.617-3.487-4.169c-2.376 2.552-5.764 4.169-9.527 4.169v-.033c-.242.011-.484.033-.737.033-3.773 0-7.15-1.617-9.527-4.169-.869 2.552-2.112 4.169-3.487 4.169-1.386 0-2.618-1.617-3.498-4.169-2.376 2.552-5.753 4.169-9.527 4.169-3.762 0-7.15-1.617-9.527-4.169-.869 2.552-2.112 4.169-3.487 4.169s-2.618-1.617-3.487-4.169c-2.376 2.552-5.764 4.169-9.527 4.169-3.773 0-7.151-1.617-9.527-4.169-.88 2.552-2.112 4.169-3.498 4.169-1.375 0-2.618-1.617-3.487-4.169-2.376 2.552-5.764 4.169-9.527 4.169-3.773 0-7.15-1.617-9.527-4.169-.869 2.552-2.112 4.169-3.487 4.169-1.386 0-2.618-1.617-3.498-4.169-2.376 2.552-5.753 4.169-9.527 4.169-3.762 0-7.151-1.617-9.527-4.169-.869 2.552-2.112 4.169-3.487 4.169s-2.618-1.617-3.487-4.169c-2.376 2.552-5.764 4.169-9.527 4.169-3.773 0-7.15-1.617-9.527-4.169-.88 2.552-2.112 4.169-3.498 4.169-1.375 0-2.618-1.617-3.487-4.169-2.376 2.552-5.764 4.169-9.527 4.169-3.773 0-7.151-1.617-9.527-4.169-.869 2.552-2.112 4.169-3.487 4.169-1.386 0-2.618-1.617-3.498-4.169-2.376 2.552-5.753 4.169-9.527 4.169-3.762 0-7.151-1.617-9.527-4.169-.869 2.552-2.112 4.169-3.487 4.169s-2.618-1.617-3.487-4.169c-2.376 2.552-5.764 4.169-9.527 4.169-3.773 0-7.151-1.617-9.527-4.169-.88 2.552-2.112 4.169-3.498 4.169-1.375 0-2.618-1.617-3.487-4.169-2.376 2.552-5.764 4.169-9.527 4.169-3.773 0-7.15-1.617-9.527-4.169-.869 2.552-2.112 4.169-3.487 4.169-1.386 0-2.618-1.617-3.498-4.169-2.376 2.552-5.753 4.169-9.527 4.169-3.762 0-7.151-1.617-9.527-4.169-.869 2.552-2.112 4.169-3.487 4.169s-2.618-1.617-3.487-4.169c-2.376 2.552-5.764 4.169-9.527 4.169a12.84 12.84 0 0 1-3.586-.506v-15.951h866.9z" style="opacity:.5;fill:#a55813"/>
    <path d="M813.291 431.104c0 7.194-5.82 13.025-13.014 13.025-3.773 0-7.151-1.617-9.527-4.169-.869 2.552-2.112 4.169-3.487 4.169-1.386 0-2.618-1.617-3.499-4.169-2.376 2.552-5.753 4.169-9.527 4.169-3.762 0-7.15-1.617-9.527-4.169-.869 2.552-2.112 4.169-3.488 4.169-1.375 0-2.618-1.617-3.487-4.169-2.376 2.552-5.764 4.169-9.527 4.169-3.773 0-7.151-1.617-9.527-4.169-.88 2.552-2.112 4.169-3.498 4.169-1.375 0-2.618-1.617-3.487-4.169-2.376 2.552-5.764 4.169-9.527 4.169-3.773 0-7.151-1.617-9.527-4.169-.869 2.552-2.112 4.169-3.487 4.169-1.386 0-2.618-1.617-3.498-4.169-2.376 2.552-5.754 4.169-9.527 4.169-3.762 0-7.151-1.617-9.527-4.169-.869 2.552-2.112 4.169-3.487 4.169s-2.618-1.617-3.487-4.169c-2.376 2.552-5.764 4.169-9.527 4.169-3.773 0-7.151-1.617-9.527-4.169-.88 2.552-2.112 4.169-3.498 4.169-1.375 0-2.618-1.617-3.487-4.169-2.376 2.552-5.764 4.169-9.527 4.169-3.773 0-7.151-1.617-9.527-4.169-.869 2.552-2.112 4.169-3.487 4.169-1.386 0-2.618-1.617-3.498-4.169-2.376 2.552-5.753 4.169-9.527 4.169-3.762 0-7.151-1.617-9.527-4.169-.869 2.552-2.112 4.169-3.487 4.169s-2.618-1.617-3.487-4.169c-2.376 2.552-5.764 4.169-9.527 4.169-3.773 0-7.151-1.617-9.527-4.169-.88 2.552-2.112 4.169-3.498 4.169-1.375 0-2.618-1.617-3.487-4.169-2.376 2.552-5.764 4.169-9.527 4.169-3.773 0-7.15-1.617-9.527-4.169-.869 2.552-2.112 4.169-3.487 4.169-1.386 0-2.618-1.617-3.498-4.169-2.376 2.552-5.753 4.169-9.527 4.169-3.762 0-7.151-1.617-9.527-4.169-.869 2.552-2.112 4.169-3.487 4.169-1.353 0-2.574-1.562-3.443-4.048a12.968 12.968 0 0 1-9.417 4.048h-.154v-.011a12.972 12.972 0 0 1-9.373-4.158c-.869 2.552-2.112 4.169-3.487 4.169-1.386 0-2.618-1.617-3.498-4.169-2.376 2.552-5.753 4.169-9.527 4.169-3.762 0-7.151-1.617-9.527-4.169-.869 2.552-2.112 4.169-3.487 4.169s-2.618-1.617-3.487-4.169c-2.376 2.552-5.764 4.169-9.527 4.169-3.773 0-7.151-1.617-9.527-4.169-.88 2.552-2.112 4.169-3.498 4.169-1.375 0-2.618-1.617-3.487-4.169-2.376 2.552-5.764 4.169-9.527 4.169-3.773 0-7.151-1.617-9.527-4.169-.869 2.552-2.112 4.169-3.487 4.169-1.386 0-2.618-1.617-3.498-4.169-2.376 2.552-5.753 4.169-9.527 4.169-3.762 0-7.15-1.617-9.527-4.169-.869 2.552-2.112 4.169-3.487 4.169s-2.618-1.617-3.487-4.169c-2.376 2.552-5.764 4.169-9.527 4.169-3.773 0-7.151-1.617-9.527-4.169-.88 2.552-2.112 4.169-3.498 4.169-1.375 0-2.618-1.617-3.487-4.169-2.376 2.552-5.764 4.169-9.527 4.169-3.773 0-7.151-1.617-9.527-4.169-.869 2.552-2.112 4.169-3.487 4.169-1.386 0-2.618-1.617-3.498-4.169-2.376 2.552-5.753 4.169-9.527 4.169-3.762 0-7.151-1.617-9.527-4.169-.869 2.552-2.112 4.169-3.487 4.169s-2.618-1.617-3.487-4.169c-2.376 2.552-5.764 4.169-9.527 4.169-3.773 0-7.151-1.617-9.527-4.169-.88 2.552-2.112 4.169-3.498 4.169-1.375 0-2.618-1.617-3.487-4.169-2.376 2.552-5.764 4.169-9.527 4.169-3.773 0-7.151-1.617-9.527-4.169-.869 2.552-2.112 4.169-3.487 4.169-1.386 0-2.618-1.617-3.498-4.169-2.376 2.552-5.753 4.169-9.527 4.169-3.762 0-7.151-1.617-9.527-4.169-.869 2.552-2.112 4.169-3.487 4.169s-2.618-1.617-3.487-4.169c-2.376 2.552-5.764 4.169-9.527 4.169v-.033c-.242.011-.484.033-.737.033-3.773 0-7.151-1.617-9.527-4.169-.869 2.552-2.112 4.169-3.487 4.169-1.386 0-2.618-1.617-3.498-4.169-2.376 2.552-5.753 4.169-9.527 4.169-3.762 0-7.151-1.617-9.527-4.169-.869 2.552-2.112 4.169-3.487 4.169s-2.618-1.617-3.487-4.169c-2.376 2.552-5.764 4.169-9.527 4.169-3.773 0-7.151-1.617-9.527-4.169-.88 2.552-2.112 4.169-3.498 4.169-1.375 0-2.618-1.617-3.487-4.169-2.376 2.552-5.764 4.169-9.527 4.169-3.773 0-7.15-1.617-9.527-4.169-.869 2.552-2.112 4.169-3.487 4.169-1.386 0-2.618-1.617-3.498-4.169-2.376 2.552-5.754 4.169-9.527 4.169-3.762 0-7.15-1.617-9.527-4.169-.869 2.552-2.112 4.169-3.487 4.169s-2.618-1.617-3.487-4.169c-2.376 2.552-5.764 4.169-9.527 4.169-3.773 0-7.15-1.617-9.527-4.169-.88 2.552-2.112 4.169-3.498 4.169-1.375 0-2.618-1.617-3.487-4.169-2.376 2.552-5.764 4.169-9.527 4.169-3.773 0-7.15-1.617-9.527-4.169-.869 2.552-2.112 4.169-3.487 4.169-1.386 0-2.618-1.617-3.498-4.169-2.376 2.552-5.753 4.169-9.527 4.169-3.762 0-7.151-1.617-9.527-4.169-.869 2.552-2.112 4.169-3.487 4.169s-2.618-1.617-3.487-4.169c-2.376 2.552-5.764 4.169-9.527 4.169-3.773 0-7.151-1.617-9.527-4.169-.88 2.552-2.112 4.169-3.498 4.169-1.375 0-2.618-1.617-3.487-4.169-2.376 2.552-5.764 4.169-9.527 4.169-3.773 0-7.151-1.617-9.527-4.169-.869 2.552-2.112 4.169-3.487 4.169-1.386 0-2.618-1.617-3.498-4.169-2.376 2.552-5.753 4.169-9.527 4.169-3.762 0-7.15-1.617-9.527-4.169-.869 2.552-2.112 4.169-3.487 4.169s-2.618-1.617-3.487-4.169c-2.376 2.552-5.764 4.169-9.527 4.169-7.195 0-13.025-5.831-13.025-13.025 0-.176.011-1.375.011-2.838l.033-3.531a2.547 2.547 0 0 1 2.552-2.519h880.594a2.554 2.554 0 0 1 2.552 2.519c.011 1.1.022 2.398.022 3.531.015 1.463.015 2.662.015 2.838z" style="fill:#8cc63f"/>
    <path d="M813.28 428.266H-72.473l.033-3.531a2.547 2.547 0 0 1 2.552-2.519h880.594a2.554 2.554 0 0 1 2.552 2.519c.011 1.1.022 2.398.022 3.531z" style="fill:#8cc63f"/>
  </g>
  <path d="m209.653 108.245-35.8 2.498-3.471.252-10.396.721c-.687 5.282-3.689 9.306-8.904 10.866-5.735 1.727-12.962.117-19.853-3.823-1.626 3.153-3.756 5.232-6.238 6.556-3.354 1.811-7.345 2.281-11.637 2.281-4.292 0-8.283-.47-11.637-2.281-2.482-1.325-4.611-3.404-6.238-6.556-6.892 3.941-14.119 5.55-19.854 3.823-5.215-1.559-8.216-5.584-8.904-10.866l-10.396-.721-3.471-.252-35.8-2.498 32.547-5.886c-1.542-2.733-1.962-6.07-.671-9.306.537-1.325 1.291-2.482 2.297-3.454a8.946 8.946 0 0 1 2.482-1.694c3.37-1.643 7.898-1.526 12.861.101-.235-10.145 2.834-18.093 9.055-20.86 5.735-2.549 12.962-.168 19.854 5.684 3.823-11.017 10.396-18.294 17.875-18.294 7.479 0 14.052 7.277 17.875 18.294 6.892-5.852 14.119-8.233 19.853-5.684 6.221 2.767 9.29 10.715 9.055 20.86 4.963-1.626 9.491-1.744 12.861-.117a9.376 9.376 0 0 1 2.482 1.71c1.006.973 1.761 2.13 2.298 3.454 1.291 3.236.872 6.573-.671 9.306l32.546 5.886z" style="fill:#fff"/>
  <path d="m209.653 108.245-32.547-5.886c1.543-2.733 1.962-6.07.671-9.306-.537-1.325-1.291-2.482-2.298-3.454a9.36 9.36 0 0 0-2.482-1.71l.015.058c1.186 4.525-2.006 9.077-6.654 9.607-2.412.275-5.357-.111-8.704-1.952 0 0-14.153 12.375-26.729.117 0 0-3.924 8.267-17.573 9.038-13.632-.771-17.573-9.038-17.573-9.038-12.576 12.258-26.728-.117-26.728-.117-3.595 1.978-6.725 2.277-9.23 1.881-4.407-.696-7.255-5.194-6.13-9.512l.017-.065a8.918 8.918 0 0 0-2.482 1.694c-1.006.973-1.761 2.13-2.297 3.454-1.291 3.236-.872 6.573.671 9.306l-32.547 5.886.027.002-.025.004 27.752 1.938 11.517.806 5.247.364 5.146.359c.694 5.283 3.693 9.305 8.902 10.867 1.434.43 2.962.652 4.555.682 1.21.023 2.466-.098 3.738-.291 3.751-.567 7.709-2.005 11.566-4.21.082.16.174.301.258.456.136.246.27.494.412.727.123.202.253.39.381.582.119.178.237.357.36.527.137.189.278.369.419.547a15.61 15.61 0 0 0 .821.955c.128.137.259.268.391.397.158.155.316.311.478.456.126.112.255.217.384.323.177.148.353.299.535.436.024.018.049.033.072.05 3.659 2.715 8.303 3.376 13.363 3.376 5.073 0 9.729-.663 13.393-3.397l.039-.027c.186-.14.366-.294.547-.445.124-.104.251-.205.373-.314.164-.147.324-.304.483-.461.13-.128.26-.257.387-.392a14.67 14.67 0 0 0 .819-.953c.143-.18.286-.362.424-.553.121-.167.238-.344.355-.52.129-.194.261-.384.385-.588.141-.23.274-.477.408-.721.086-.156.178-.299.261-.46 3.828 2.188 7.757 3.621 11.482 4.198 1.301.202 2.585.328 3.822.304 1.593-.03 3.121-.252 4.555-.682 5.209-1.562 8.207-5.584 8.902-10.867l5.177-.361 5.216-.362 11.441-.801 27.828-1.943-.025-.004.029-.005z" style="fill:#d7ecf9"/>
  <path d="m729.151 101.287-26.135 1.824-2.534.184-7.589.526c-.502 3.856-2.693 6.794-6.5 7.932-4.186 1.261-9.462.086-14.493-2.791-1.187 2.301-2.742 3.819-4.554 4.786-2.448 1.322-5.362 1.665-8.496 1.665-3.134 0-6.047-.343-8.495-1.665-1.812-.967-3.366-2.485-4.554-4.786-5.031 2.877-10.307 4.052-14.494 2.791-3.807-1.138-5.998-4.076-6.5-7.932l-7.589-.526-2.534-.184-26.135-1.824 23.76-4.297c-1.126-1.995-1.432-4.431-.49-6.794a7.239 7.239 0 0 1 1.677-2.522 6.515 6.515 0 0 1 1.812-1.236c2.461-1.2 5.766-1.114 9.389.073-.172-7.406 2.069-13.208 6.61-15.228 4.187-1.861 9.462-.122 14.494 4.15 2.791-8.043 7.589-13.355 13.049-13.355 5.459 0 10.258 5.313 13.049 13.355 5.031-4.272 10.307-6.01 14.493-4.15 4.541 2.02 6.782 7.822 6.61 15.228 3.623-1.187 6.928-1.273 9.389-.086a6.844 6.844 0 0 1 1.812 1.249 7.225 7.225 0 0 1 1.677 2.522c.943 2.363.636 4.799-.49 6.794l23.761 4.297z" style="fill:#fff"/>
  <path d="m729.151 101.287-23.76-4.297c1.126-1.995 1.432-4.431.49-6.794a7.239 7.239 0 0 0-1.677-2.522 6.852 6.852 0 0 0-1.812-1.249l.011.043c.865 3.303-1.464 6.627-4.857 7.014-1.761.201-3.91-.081-6.354-1.425 0 0-10.332 9.034-19.513.086 0 0-2.864 6.035-12.829 6.598-9.952-.563-12.829-6.598-12.829-6.598-9.181 8.948-19.512-.086-19.512-.086-2.624 1.444-4.909 1.662-6.738 1.373-3.217-.508-5.297-3.792-4.475-6.944l.012-.048a6.53 6.53 0 0 0-1.812 1.236 7.225 7.225 0 0 0-1.677 2.522c-.943 2.363-.637 4.799.49 6.794l-23.76 4.297.02.001-.018.003 20.259 1.414 8.408.589 3.831.266 3.757.262c.507 3.856 2.696 6.793 6.498 7.933a12.37 12.37 0 0 0 3.325.498c.883.017 1.8-.072 2.729-.213 2.738-.414 5.628-1.464 8.443-3.073.06.117.127.22.189.333.099.179.197.361.301.53.09.147.185.285.278.424.087.13.173.261.263.385.1.138.203.269.306.399a11.479 11.479 0 0 0 .599.697c.094.1.19.195.286.29.115.113.23.227.349.333.092.082.186.158.28.236.129.108.258.218.391.318l.053.037c2.672 1.982 6.061 2.464 9.755 2.464 3.704 0 7.102-.484 9.777-2.48l.029-.02c.136-.102.267-.214.399-.325.091-.076.183-.15.272-.229.12-.107.236-.222.353-.337.095-.094.19-.188.282-.286a11.769 11.769 0 0 0 .907-1.1c.088-.122.174-.251.259-.379.094-.141.19-.28.281-.429.103-.168.2-.348.298-.526.062-.114.13-.218.19-.336 2.795 1.598 5.662 2.644 8.382 3.064.95.147 1.887.239 2.79.222a12.37 12.37 0 0 0 3.325-.498c3.803-1.14 5.992-4.077 6.499-7.933l3.779-.264 3.808-.264 8.352-.585 20.315-1.418-.018-.003h.021z" style="fill:#d7ecf9"/>
  <path d="m510.591 152.218-44.178 3.083-4.283.31-12.829.89c-.848 6.518-4.552 11.484-10.988 13.408-7.077 2.131-15.995.145-24.499-4.718-2.007 3.89-4.635 6.456-7.697 8.09-4.138 2.235-9.063 2.814-14.361 2.814-5.297 0-10.222-.579-14.36-2.814-3.062-1.635-5.69-4.2-7.697-8.09-8.505 4.863-17.423 6.849-24.5 4.718-6.435-1.924-10.139-6.89-10.987-13.408l-12.829-.89-4.283-.31-44.178-3.083 40.163-7.263c-1.904-3.373-2.421-7.49-.827-11.484.662-1.635 1.593-3.062 2.835-4.263a11.006 11.006 0 0 1 3.062-2.09c4.159-2.028 9.746-1.883 15.871.124-.29-12.519 3.497-22.327 11.174-25.741 7.077-3.145 15.995-.207 24.5 7.015 4.718-13.595 12.829-22.575 22.058-22.575s17.34 8.98 22.058 22.575c8.504-7.221 17.423-10.16 24.499-7.015 7.677 3.414 11.464 13.222 11.174 25.741 6.125-2.007 11.712-2.152 15.871-.145a11.547 11.547 0 0 1 3.062 2.111c1.242 1.2 2.173 2.628 2.835 4.263 1.593 3.994 1.076 8.111-.828 11.484l40.162 7.263z" style="fill:#fff"/>
  <path d="m510.591 152.218-40.164-7.263c1.904-3.373 2.421-7.49.828-11.484-.662-1.635-1.593-3.062-2.835-4.263a11.547 11.547 0 0 0-3.062-2.111l.019.072c1.463 5.584-2.476 11.201-8.211 11.856-2.977.34-6.61-.137-10.741-2.409 0 0-17.465 15.271-32.984.145 0 0-4.842 10.201-21.685 11.153-16.822-.952-21.685-11.153-21.685-11.153-15.519 15.126-32.983-.145-32.983-.145-4.436 2.44-8.298 2.809-11.39 2.321-5.439-.859-8.953-6.41-7.564-11.738l.021-.08a11.006 11.006 0 0 0-3.062 2.09c-1.242 1.2-2.173 2.628-2.835 4.263-1.593 3.994-1.076 8.111.827 11.484l-40.163 7.263.033.002-.03.005 34.246 2.391 14.212.995 6.475.449 6.35.443c.857 6.519 4.557 11.483 10.985 13.41 1.769.53 3.655.804 5.621.841 1.493.029 3.043-.122 4.613-.36 4.629-.7 9.513-2.474 14.273-5.195.102.197.214.372.319.563.167.303.333.61.508.896.152.249.312.481.47.718.147.22.293.441.444.65.169.233.343.455.517.675a17.31 17.31 0 0 0 1.014 1.179c.158.169.32.33.483.49.194.191.389.383.59.563.156.139.315.267.474.399.219.182.436.369.661.538.029.022.06.04.089.062 4.516 3.351 10.246 4.166 16.49 4.166 6.261 0 12.005-.818 16.527-4.192l.049-.034c.23-.173.451-.363.674-.549.154-.128.309-.253.46-.388.203-.182.4-.375.597-.569.161-.158.32-.318.477-.484a18.153 18.153 0 0 0 1.012-1.176c.177-.223.353-.447.523-.683.15-.206.294-.425.438-.641.16-.239.322-.473.475-.725.174-.285.338-.589.504-.889.106-.192.219-.369.322-.568 4.724 2.701 9.572 4.469 14.169 5.18 1.606.249 3.19.404 4.716.375 1.966-.037 3.852-.311 5.621-.841 6.428-1.927 10.128-6.891 10.985-13.41l6.388-.446 6.437-.447 14.119-.989 34.34-2.398-.03-.005.029-.002z" style="fill:#d7ecf9"/>
  <path d="M603.368 224.202s1.839-2.465.405-2.722c-1.435-.258-3.164 1.288-3.164 1.288s1.14-3.605-.331-3.495c-.861.065-1.807 1.738-2.447 3.118-.639-1.38-1.586-3.053-2.447-3.118-1.472-.11-.331 3.495-.331 3.495s-1.729-1.545-3.164-1.288c-1.435.257.405 2.722.405 2.722s-2.686-.877-2.833 1.07h16.74c-.148-1.948-2.833-1.07-2.833-1.07z" style="fill:#739937"/>
  <path d="M589.571 225.271h-15.569a18.63 18.63 0 0 1 .463-3.793c.079-.337.166-.667.262-.99.055-.184.112-.366.174-.545.109-.328.23-.645.357-.954.312-.748.675-1.439 1.081-2.062.277-.427.576-.821.893-1.179.161-.184.329-.359.502-.523 1.18-1.131 2.568-1.781 4.053-1.781s2.873.65 4.052 1.781c.173.164.341.339.502.523.317.358.616.752.893 1.179.406.623.768 1.314 1.081 2.062.128.309.248.626.357.954.062.179.119.361.174.545a17.468 17.468 0 0 1 .623 3.145c.057.536.092 1.082.102 1.638z" style="fill:#818ca1"/>
  <path d="M596.101 225.271h-11.557c.008-.413.034-.819.076-1.216a13.165 13.165 0 0 1 .462-2.334 11.154 11.154 0 0 1 .395-1.113 9.607 9.607 0 0 1 .802-1.531 7.351 7.351 0 0 1 1.035-1.264c.876-.839 1.906-1.322 3.008-1.322s2.133.483 3.008 1.322c.128.122.253.252.372.389.235.266.457.558.663.875.301.462.57.975.802 1.531a11.988 11.988 0 0 1 .589 1.848c.12.513.209 1.048.268 1.599.044.398.07.803.077 1.216z" style="fill:#a0aecd"/>
  <path d="M578.84 224.322s1.364-2.188.3-2.416c-1.064-.229-2.347 1.143-2.347 1.143s.846-3.2-.246-3.102c-.638.057-1.34 1.542-1.815 2.767-.474-1.225-1.176-2.71-1.815-2.767-1.091-.098-.246 3.102-.246 3.102s-1.282-1.371-2.347-1.143c-1.064.229.3 2.416.3 2.416s-1.992-.779-2.101.949h12.416c-.107-1.728-2.099-.949-2.099-.949z" style="fill:#8cc63f"/>
  <path d="M630.461 224.202s-1.729-4.819-3.201-4.93c-1.472-.11-.331 3.495-.331 3.495s-1.729-1.545-3.164-1.288c-1.435.257.405 2.722.405 2.722s-2.686-.877-2.833 1.07h9.492l-.368-1.069zm5.297 0s1.729-4.819 3.201-4.93c1.471-.11.331 3.495.331 3.495s1.729-1.545 3.164-1.288c1.435.257-.405 2.722-.405 2.722s2.686-.877 2.833 1.07h-9.492l.368-1.069z" style="fill:#739937"/>
  <path d="M636.458 225.271h-6.698l.494-5.207.252-2.664.218-2.262a46.39 46.39 0 0 1 2.388-.058c.833 0 1.632.019 2.383.058l.218 2.262.252 2.664.493 5.207z" style="fill:#ffca54"/>
  <path d="M635.964 220.065c-1.86.145-3.851.145-5.711 0l.252-2.664.218-2.262a46.39 46.39 0 0 1 2.388-.058c.833 0 1.632.019 2.383.058l.218 2.262.252 2.664z" style="opacity:.5;fill:#d37416"/>
  <path d="M643.535 215.386c0 4.325-20.852 4.325-20.852 0 0-.145.01-.296.034-.45.107-.683.436-1.41.925-2.146.639-.978 1.545-1.976 2.548-2.93.388-.363.789-.727 1.196-1.07a40.81 40.81 0 0 1 1.293-1.07c2.557-2.025 6.301-2.025 8.859 0 .426.339.862.697 1.288 1.07a27.5 27.5 0 0 1 1.196 1.07c1.003.949 1.913 1.952 2.552 2.925.484.736.818 1.463.925 2.146.021.154.036.305.036.455z" style="fill:#a385ff"/>
  <path d="m640.023 209.859-2.218 1.284-2.349-1.361-2.349 1.361-2.354-1.361-2.349 1.361-2.214-1.284c.388-.363.789-.727 1.196-1.07l1.017.591 2.349-1.366 2.354 1.366 2.349-1.366 2.349 1.366 1.022-.591c.408.344.81.702 1.197 1.07zm3.478 5.071-3.26 1.884-3.565-2.068-3.574 2.068-3.57-2.068-3.57 2.068-3.245-1.879c.107-.683.436-1.41.925-2.146l2.32 1.346 3.57-2.073 3.57 2.073 3.574-2.073 3.565 2.073 2.335-1.351c.484.737.818 1.463.925 2.146z" style="fill:#ffca54"/>
  <path d="M569.389 228.106h84.262v46.188h-84.262z" style="fill:#873c07"/>
  <path d="M653.651 228.426v11.217a6.364 6.364 0 0 1-1.517.178h-.022a6.749 6.749 0 0 1-4.936-2.156c-.453 1.316-1.1 2.156-1.806 2.156-.007 0-.015-.007-.015-.007s-.007.007-.015.007c-.714 0-1.353-.833-1.806-2.148a7.01 7.01 0 0 1-2.312 1.613v-.015c-.818.349-1.71.55-2.646.55a6.727 6.727 0 0 1-4.951-2.171c-.453 1.331-1.1 2.171-1.814 2.171-.721 0-1.36-.84-1.821-2.171a6.726 6.726 0 0 1-4.951 2.171 6.739 6.739 0 0 1-4.951-2.171c-.454 1.331-1.1 2.171-1.814 2.171s-1.36-.84-1.814-2.171a6.727 6.727 0 0 1-9.902 0c-.453 1.331-1.1 2.171-1.821 2.171-.714 0-1.36-.84-1.807-2.171a6.766 6.766 0 0 1-4.958 2.171 6.739 6.739 0 0 1-4.951-2.171c-.446 1.331-1.093 2.171-1.814 2.171-.714 0-1.361-.84-1.814-2.171a6.726 6.726 0 0 1-4.951 2.171 6.739 6.739 0 0 1-4.951-2.171c-.453 1.331-1.1 2.171-1.814 2.171s-1.36-.84-1.814-2.171a6.739 6.739 0 0 1-4.951 2.171c-.528 0-1.033-.06-1.524-.178v-11.217h84.263z" style="opacity:.5;fill:#873c07"/>
  <path d="M569.39 263.589h84.261v10.706H569.39zm0-12.389h84.261v7.341H569.39zm0-8.106h84.261v4.282H569.39z" style="opacity:.3;fill:#873c07"/>
  <path d="M658.899 228.106v1.472a6.767 6.767 0 0 1-6.765 6.772h-.022a6.722 6.722 0 0 1-4.936-2.156c-.453 1.323-1.1 2.156-1.806 2.156h-.03c-.714 0-1.353-.833-1.806-2.148a7.01 7.01 0 0 1-2.312 1.613v-.015c-.818.349-1.71.55-2.646.55a6.727 6.727 0 0 1-4.951-2.171c-.453 1.331-1.1 2.171-1.814 2.171-.721 0-1.36-.84-1.821-2.171a6.726 6.726 0 0 1-4.951 2.171 6.739 6.739 0 0 1-4.951-2.171c-.454 1.331-1.1 2.171-1.814 2.171s-1.36-.84-1.814-2.171a6.727 6.727 0 0 1-9.902 0c-.453 1.331-1.1 2.171-1.821 2.171-.714 0-1.36-.84-1.807-2.171a6.766 6.766 0 0 1-4.958 2.171 6.739 6.739 0 0 1-4.951-2.171c-.446 1.331-1.093 2.171-1.814 2.171-.714 0-1.361-.84-1.814-2.171a6.726 6.726 0 0 1-4.951 2.171 6.739 6.739 0 0 1-4.951-2.171c-.453 1.331-1.1 2.171-1.814 2.171s-1.36-.84-1.814-2.171a6.739 6.739 0 0 1-4.951 2.171 6.773 6.773 0 0 1-6.772-6.772c0-.089.007-.714.007-1.472.007-.595.007-1.264.015-1.836a1.322 1.322 0 0 1 1.323-1.308h92.067c.721 0 1.315.58 1.323 1.308.009.573.016 1.242.024 1.836z" style="fill:#8cc63f"/>
  <path d="M658.899 228.106h-94.751c.007-.595.007-1.264.015-1.836a1.322 1.322 0 0 1 1.323-1.308h92.067c.721 0 1.315.58 1.323 1.308l.023 1.836z" style="opacity:.5;fill:#8cc63f"/>
</svg>
